<svg height="600" width="800" xmlns="http://www.w3.org/2000/svg">
<line stroke="green" stroke-width="2" x1="400" x2="400" y1="300" y2="341"/>
<line stroke="green" stroke-width="2" x1="400" x2="414" y1="341" y2="341"/>
<line stroke="green" stroke-width="2" x1="414" x2="414" y1="341" y2="242"/>
<line stroke="green" stroke-width="2" x1="414" x2="374" y1="242" y2="242"/>
<line stroke="green" stroke-width="2" x1="374" x2="387.02361332501977" y1="242" y2="315.86058147591564"/>
<line stroke="green" stroke-width="2" x1="387.02361332501977" x2="441.18803974069124" y1="315.86058147591564" y2="306.3099317042345"/>
<line stroke="green" stroke-width="2" x1="441.18803974069124" x2="431.1164454360093" y1="306.3099317042345" y2="249.1910820295264"/>
<line stroke="green" stroke-width="2" x1="431.1164454360093" x2="381.8760577853989" y1="249.1910820295264" y2="257.8734909128729"/>
<line stroke="green" stroke-width="2" x1="381.8760577853989" x2="397.60898437837966" y1="257.8734909128729" y2="301.0993514690247"/>
<line stroke="green" stroke-width="2" x1="397.60898437837966" x2="474.6637792828242" y1="301.0993514690247" y2="273.05369971631995"/>
<line stroke="green" stroke-width="2" x1="474.6637792828242" x2="454.8266109699355" y1="273.05369971631995" y2="218.55152771073725"/>
<line stroke="green" stroke-width="2" x1="454.8266109699355" x2="434.1533733126455" y1="218.55152771073725" y2="226.07597086390194"/>
<line stroke="green" stroke-width="2" x1="434.1533733126455" x2="453.1533733126455" y1="226.07597086390194" y2="258.9849362077106"/>
<line stroke="green" stroke-width="2" x1="453.1533733126455" x2="490.3924656753764" y1="258.9849362077106" y2="237.48493620771063"/>
<line stroke="green" stroke-width="2" x1="490.3924656753764" x2="489.8924656753764" y1="237.48493620771063" y2="236.61891080392618"/>
<line stroke="green" stroke-width="2" x1="489.8924656753764" x2="456.1174749277833" y1="236.61891080392618" y2="256.11891080392616"/>
<line stroke="green" stroke-width="2" x1="456.1174749277833" x2="471.5443775602602" y1="256.11891080392616" y2="274.50397743878165"/>
<line stroke="green" stroke-width="2" x1="471.5443775602602" x2="486.09922197952085" y1="274.50397743878165" y2="262.2910128547374"/>
<line stroke="green" stroke-width="2" x1="486.09922197952085" x2="439.81851408209" y1="262.2910128547374" y2="207.135812950171"/>
<line stroke="green" stroke-width="2" x1="439.81851408209" x2="409.94278080044984" y1="207.135812950171" y2="232.20452972794595"/>
<line stroke="green" stroke-width="2" x1="409.94278080044984" x2="432.92411409401916" y1="232.20452972794595" y2="251.48815801854215"/>
<line stroke="green" stroke-width="2" x1="432.92411409401916" x2="448.3510167264961" y1="251.48815801854215" y2="233.10309138368666"/>
<line stroke="green" stroke-width="2" x1="448.3510167264961" x2="432.2640834209976" y1="233.10309138368666" y2="219.60455158026926"/>
<line stroke="green" stroke-width="2" x1="432.2640834209976" x2="395.6251896688648" y1="219.60455158026926" y2="263.2690848380509"/>
<line stroke="green" stroke-width="2" x1="395.6251896688648" x2="425.93607880132015" y1="263.2690848380509" y2="280.76908483805084"/>
<line stroke="green" stroke-width="2" x1="425.93607880132015" x2="453.93607880132026" y1="280.76908483805084" y2="232.27166222612237"/>
<line stroke="green" stroke-width="2" x1="453.93607880132026" x2="375.12776705693636" y1="232.27166222612237" y2="186.7716622261223"/>
<line stroke="green" stroke-width="2" x1="375.12776705693636" x2="374.62776705693636" y1="186.7716622261223" y2="187.63768762990674"/>
<line stroke="green" stroke-width="2" x1="374.62776705693636" x2="443.22532837430765" y1="187.63768762990674" y2="212.60515809268065"/>
<line stroke="green" stroke-width="2" x1="443.22532837430765" x2="461.0103758272424" y1="212.60515809268065" y2="163.7411418118134"/>
<line stroke="green" stroke-width="2" x1="461.0103758272424" x2="453.4928348609551" y1="163.7411418118134" y2="161.00498066520808"/>
<line stroke="green" stroke-width="2" x1="453.4928348609551" x2="429.5514248281581" y1="161.00498066520808" y2="226.7834641202216"/>
<line stroke="green" stroke-width="2" x1="429.5514248281581" x2="439.3995023582802" y1="226.7834641202216" y2="228.51994589689087"/>
<line stroke="green" stroke-width="2" x1="439.3995023582802" x2="452.42311568330024" y1="228.51994589689087" y2="154.6593644209753"/>
<line stroke="green" stroke-width="2" x1="452.42311568330024" x2="359.8511869001527" y1="154.6593644209753" y2="138.33643572028367"/>
<line stroke="green" stroke-width="2" x1="359.8511869001527" x2="347.1748699304668" y1="138.33643572028367" y2="210.22740169017487"/>
<line stroke="green" stroke-width="2" x1="347.1748699304668" x2="427.1748699304668" y1="210.22740169017487" y2="210.22740169017504"/>
<line stroke="green" stroke-width="2" x1="427.1748699304668" x2="427.17486993046685" y1="210.22740169017504" y2="117.22740169017504"/>
<line stroke="green" stroke-width="2" x1="427.17486993046685" x2="343.17486993046685" y1="117.22740169017504" y2="117.22740169017514"/>
<line stroke="green" stroke-width="2" x1="343.17486993046685" x2="343.1748699304665" y1="117.22740169017514" y2="200.22740169017516"/>
<line stroke="green" stroke-width="2" x1="343.1748699304665" x2="405.21775837023563" y1="200.22740169017516" y2="189.28756649715848"/>
<line stroke="green" stroke-width="2" x1="405.21775837023563" x2="393.23603411121724" y1="189.28756649715848" y2="121.33583153931616"/>
<line stroke="green" stroke-width="2" x1="393.23603411121724" x2="321.345068141326" y1="121.33583153931616" y2="134.01214850900186"/>
<line stroke="green" stroke-width="2" x1="321.345068141326" x2="327.7700507150021" y1="134.01214850900186" y2="170.4500353704536"/>
<line stroke="green" stroke-width="2" x1="327.7700507150021" x2="382.27222272058486" y1="170.4500353704536" y2="150.61286705756498"/>
<line stroke="green" stroke-width="2" x1="382.27222272058486" x2="363.80313498099844" y1="150.61286705756498" y2="99.86946553512604"/>
<line stroke="green" stroke-width="2" x1="363.80313498099844" x2="321.51696704563255" y1="99.86946553512604" y2="115.26037198478114"/>
<line stroke="green" stroke-width="2" x1="321.51696704563255" x2="337.5919137819388" y1="115.26037198478114" y2="159.4259251617189"/>
<line stroke="green" stroke-width="2" x1="337.5919137819388" x2="378.2951077598074" y1="159.4259251617189" y2="135.9259251617189"/>
<line stroke="green" stroke-width="2" x1="378.2951077598074" x2="377.7951077598074" y1="135.9259251617189" y2="135.05989975793446"/>
<line stroke="green" stroke-width="2" x1="377.7951077598074" x2="335.35986297437" y1="135.05989975793446" y2="159.5598997579346"/>
<line stroke="green" stroke-width="2" x1="335.35986297437" x2="366.3598629743699" y1="159.5598997579346" y2="213.25347479256985"/>
<line stroke="green" stroke-width="2" x1="366.3598629743699" x2="390.8732851541771" y1="213.25347479256985" y2="192.68427128260052"/>
<line stroke="green" stroke-width="2" x1="390.8732851541771" x2="342.02142681800024" y1="192.68427128260052" y2="134.46489360555807"/>
<line stroke="green" stroke-width="2" x1="342.02142681800024" x2="272.3113824941728" y1="134.46489360555807" y2="192.95856608703264"/>
<line stroke="green" stroke-width="2" x1="272.3113824941728" x2="306.37912580755943" y1="192.95856608703264" y2="233.55892157233842"/>
<line stroke="green" stroke-width="2" x1="306.37912580755943" x2="355.87377175342345" y1="233.55892157233842" y2="174.57349945217751"/>
<line stroke="green" stroke-width="2" x1="355.87377175342345" x2="296.8883496332621" y1="174.57349945217751" y2="125.07885350631403"/>
<line stroke="green" stroke-width="2" x1="296.8883496332621" x2="268.60569480705425" y1="125.07885350631403" y2="158.78480900354893"/>
<line stroke="green" stroke-width="2" x1="268.60569480705425" x2="300.0135169749325" y1="158.78480900354893" y2="185.1391010006969"/>
<line stroke="green" stroke-width="2" x1="300.0135169749325" x2="327.5135169749327" y1="185.1391010006969" y2="137.50770379255292"/>
<line stroke="green" stroke-width="2" x1="327.5135169749327" x2="310.1930088992439" y1="137.50770379255292" y2="127.50770379255299"/>
<line stroke="green" stroke-width="2" x1="310.1930088992439" x2="303.1930088992439" y1="127.50770379255299" y2="139.6320594455351"/>
<line stroke="green" stroke-width="2" x1="303.1930088992439" x2="338.70005045440575" y1="139.6320594455351" y2="160.13205944553533"/>
<line stroke="green" stroke-width="2" x1="338.70005045440575" x2="362.64146048720266" y1="160.13205944553533" y2="94.35357599052179"/>
<line stroke="green" stroke-width="2" x1="362.64146048720266" x2="273.3706615125416" y1="94.35357599052179" y2="61.86166237458262"/>
<line stroke="green" stroke-width="2" x1="273.3706615125416" x2="261.7419766394689" y1="61.86166237458262" y2="93.81121148130353"/>
<line stroke="green" stroke-width="2" x1="261.7419766394689" x2="311.54568554112194" y1="93.81121148130353" y2="111.93827907756416"/>
<line stroke="green" stroke-width="2" x1="311.54568554112194" x2="324.5692988661416" y1="111.93827907756416" y2="38.07769760164854"/>
<line stroke="green" stroke-width="2" x1="324.5692988661416" x2="260.5567949203481" y1="38.07769760164854" y2="26.790566053297805"/>
<line stroke="green" stroke-width="2" x1="260.5567949203481" x2="259.6885540320135" y1="26.790566053297805" y2="31.71460481835885"/>
<line stroke="green" stroke-width="2" x1="259.6885540320135" x2="298.0960563994896" y1="31.71460481835885" y2="38.48688374736916"/>
<line stroke="green" stroke-width="2" x1="298.0960563994896" x2="298.0960563994893" y1="38.48688374736916" y2="-29.513116252630837"/>
<line stroke="green" stroke-width="2" x1="298.0960563994893" x2="211.09605639948933" y1="-29.513116252630837" y2="-29.513116252630923"/>
<line stroke="green" stroke-width="2" x1="211.09605639948933" x2="211.09605639948907" y1="-29.513116252630923" y2="8.486883747369077"/>
<line stroke="green" stroke-width="2" x1="211.09605639948907" x2="250.09605639948907" y1="8.486883747369077" y2="8.486883747368982"/>
<line stroke="green" stroke-width="2" x1="250.09605639948907" x2="242.62918475981135" y1="8.486883747368982" y2="-33.85984963215601"/>
<line stroke="green" stroke-width="2" x1="242.62918475981135" x2="216.03937542848175" y1="-33.85984963215601" y2="-29.171348835148837"/>
<line stroke="green" stroke-width="2" x1="216.03937542848175" x2="228.54204422050051" y1="-29.171348835148837" y2="41.73480938173019"/>
<line stroke="green" stroke-width="2" x1="228.54204422050051" x2="246.2685837747203" y1="41.73480938173019" y2="38.609142183725595"/>
<line stroke="green" stroke-width="2" x1="246.2685837747203" x2="240.79626148150965" y1="38.609142183725595" y2="23.57406025115104"/>
<line stroke="green" stroke-width="2" x1="240.79626148150965" x2="238.91687623993784" y1="23.57406025115104" y2="24.258100537802385"/>
<line stroke="green" stroke-width="2" x1="238.91687623993784" x2="262.1742459860833" y1="24.258100537802385" y2="88.15719875124415"/>
<line stroke="green" stroke-width="2" x1="262.1742459860833" x2="273.4505574355142" y1="88.15719875124415" y2="84.05295703133619"/>
<line stroke="green" stroke-width="2" x1="273.4505574355142" x2="243.95055743551495" y1="84.05295703133619" y2="32.95745820805388"/>
<line stroke="green" stroke-width="2" x1="243.95055743551495" x2="217.9697953219819" y1="32.95745820805388" y2="47.95745820805409"/>
<line stroke="green" stroke-width="2" x1="217.9697953219819" x2="249.96979532198208" y1="47.95745820805409" y2="103.38308405025808"/>
<line stroke="green" stroke-width="2" x1="249.96979532198208" x2="312.3236243944617" y1="103.38308405025808" y2="67.38308405025822"/>
<line stroke="green" stroke-width="2" x1="312.3236243944617" x2="286.6121200070005" y1="67.38308405025822" y2="36.7413063254988"/>
<line stroke="green" stroke-width="2" x1="286.6121200070005" x2="277.41958668957284" y1="36.7413063254988" y2="44.45475764173737"/>
<line stroke="green" stroke-width="2" x1="277.41958668957284" x2="326.27144502575015" y1="44.45475764173737" y2="102.6741353187794"/>
<line stroke="green" stroke-width="2" x1="326.27144502575015" x2="333.9318894569399" y1="102.6741353187794" y2="96.246259221914"/>
<line stroke="green" stroke-width="2" x1="333.9318894569399" x2="274.1804228936601" y1="96.246259221914" y2="46.10882566636343"/>
<line stroke="green" stroke-width="2" x1="274.1804228936601" x2="221.47183889936298" y1="46.10882566636343" y2="108.92447000211891"/>
<line stroke="green" stroke-width="2" x1="221.47183889936298" x2="249.0494388516464" y1="108.92447000211891" y2="132.06482395083407"/>
<line stroke="green" stroke-width="2" x1="249.0494388516464" x2="256.1201025581983" y1="132.06482395083407" y2="123.63833507652528"/>
<line stroke="green" stroke-width="2" x1="256.1201025581983" x2="239.66561988629402" y1="123.63833507652528" y2="114.1383350765252"/>
<line stroke="green" stroke-width="2" x1="239.66561988629402" x2="234.66561988629394" y1="114.1383350765252" y2="122.79858911436952"/>
<line stroke="green" stroke-width="2" x1="234.66561988629394" x2="309.14380461175494" y1="122.79858911436952" y2="165.7985891143707"/>
<line stroke="green" stroke-width="2" x1="309.14380461175494" x2="324.1438046117548" y1="165.7985891143707" y2="139.81782700083744"/>
<line stroke="green" stroke-width="2" x1="324.1438046117548" x2="318.50564888703934" y1="139.81782700083744" y2="137.76570614088342"/>
<line stroke="green" stroke-width="2" x1="318.50564888703934" x2="290.8020172776596" y1="137.76570614088342" y2="213.88080842454178"/>
<line stroke="green" stroke-width="2" x1="290.8020172776596" x2="370.6758900444614" y1="213.88080842454178" y2="242.95252060722467"/>
<line stroke="green" stroke-width="2" x1="370.6758900444614" x2="377.174272767649" y1="242.95252060722467" y2="225.09836081229236"/>
<line stroke="green" stroke-width="2" x1="377.174272767649" x2="307.25292230378216" y1="225.09836081229236" y2="212.76934019794035"/>
<line stroke="green" stroke-width="2" x1="307.25292230378216" x2="293.8820126234282" y1="212.76934019794035" y2="288.5995371798803"/>
<line stroke="green" stroke-width="2" x1="293.8820126234282" x2="298.8060513884892" y1="288.5995371798803" y2="289.467778068215"/>
<line stroke="green" stroke-width="2" x1="298.8060513884892" x2="301.0634776981595" y1="289.467778068215" y2="276.66527727905634"/>
<line stroke="green" stroke-width="2" x1="301.0634776981595" x2="300.0634776981595" y1="276.66527727905634" y2="276.66527727905634"/>
<line stroke="green" stroke-width="2" x1="300.0634776981595" x2="300.0634776981594" y1="276.66527727905634" y2="358.66527727905634"/>
<line stroke="green" stroke-width="2" x1="300.0634776981594" x2="399.0634776981594" y1="358.66527727905634" y2="358.665277279057"/>
<line stroke="green" stroke-width="2" x1="399.0634776981594" x2="399.06347769815966" y1="358.665277279057" y2="336.665277279057"/>
<line stroke="green" stroke-width="2" x1="399.06347769815966" x2="396.10905443912304" y1="336.665277279057" y2="337.18622181205785"/>
<line stroke="green" stroke-width="2" x1="396.10905443912304" x2="404.9651115001366" y1="337.18622181205785" y2="387.41141721568044"/>
<line stroke="green" stroke-width="2" x1="404.9651115001366" x2="426.63088206640515" y1="387.41141721568044" y2="383.5911573070081"/>
<line stroke="green" stroke-width="2" x1="426.63088206640515" x2="411.34984243171607" y1="383.5911573070081" y2="296.92807504193365"/>
<line stroke="green" stroke-width="2" x1="411.34984243171607" x2="375.64152284185167" y1="296.92807504193365" y2="309.9248404883094"/>
<line stroke="green" stroke-width="2" x1="375.64152284185167" x2="405.39727531118524" y1="309.9248404883094" y2="391.67809849668333"/>
<line stroke="green" stroke-width="2" x1="405.39727531118524" x2="488.0902259403452" y1="391.67809849668333" y2="361.58032588402455"/>
<line stroke="green" stroke-width="2" x1="488.0902259403452" x2="470.989218774062" y1="361.58032588402455" y2="314.595694844729"/>
<line stroke="green" stroke-width="2" x1="470.989218774062" x2="413.83154212428855" y1="314.595694844729" y2="347.59569484472814"/>
<line stroke="green" stroke-width="2" x1="413.83154212428855" x2="415.83154212428855" y1="347.59569484472814" y2="351.0597964598659"/>
<line stroke="green" stroke-width="2" x1="415.83154212428855" x2="485.11357442704355" y1="351.0597964598659" y2="311.0597964598657"/>
<line stroke="green" stroke-width="2" x1="485.11357442704355" x2="471.1135744270436" y1="311.0597964598657" y2="286.8110851539014"/>
<line stroke="green" stroke-width="2" x1="471.1135744270436" x2="443.5359744747601" y1="286.8110851539014" y2="309.95143910261646"/>
<line stroke="green" stroke-width="2" x1="443.5359744747601" x2="446.1071249135062" y1="309.95143910261646" y2="313.0156168750924"/>
<line stroke="green" stroke-width="2" x1="446.1071249135062" x2="452.23548045845797" y1="313.0156168750924" y2="307.87331599760006"/>
<line stroke="green" stroke-width="2" x1="452.23548045845797" x2="391.8134451479233" y1="307.87331599760006" y2="235.86513834441615"/>
<line stroke="green" stroke-width="2" x1="391.8134451479233" x2="348.7466752989247" y1="235.86513834441615" y2="287.1901160333873"/>
<line stroke="green" stroke-width="2" x1="348.7466752989247" x2="361.0033863888282" y1="287.1901160333873" y2="297.4747177883721"/>
<line stroke="green" stroke-width="2" x1="361.0033863888282" x2="372.57356336318577" y1="297.4747177883721" y2="283.6859178122304"/>
<line stroke="green" stroke-width="2" x1="372.57356336318577" x2="303.6295634824776" y1="283.6859178122304" y2="225.8350329404421"/>
<line stroke="green" stroke-width="2" x1="303.6295634824776" x2="288.1295634824774" y1="225.8350329404421" y2="252.6818204577596"/>
<line stroke="green" stroke-width="2" x1="288.1295634824774" x2="360.0096719965853" y1="252.6818204577596" y2="294.1818204577604"/>
<line stroke="green" stroke-width="2" x1="360.0096719965853" x2="382.00967199658595" y1="294.1818204577604" y2="256.0767026912455"/>
<line stroke="green" stroke-width="2" x1="382.00967199658595" x2="360.3590369019749" y1="256.0767026912455" y2="243.57670269124563"/>
<line stroke="green" stroke-width="2" x1="360.3590369019749" x2="346.67823116894806" y1="243.57670269124563" y2="281.1644075226819"/>
<line stroke="green" stroke-width="2" x1="346.67823116894806" x2="424.67271869417823" y1="281.1644075226819" y2="309.55207941871305"/>
<line stroke="green" stroke-width="2" x1="424.67271869417823" x2="435.2753431372744" y1="309.55207941871305" y2="280.42160817435"/>
<line stroke="green" stroke-width="2" x1="435.2753431372744" x2="380.77317113169147" y1="280.42160817435" y2="260.58443986146176"/>
<line stroke="green" stroke-width="2" x1="380.77317113169147" x2="364.7975387863339" y1="260.58443986146176" y2="351.1867531385849"/>
<line stroke="green" stroke-width="2" x1="364.7975387863339" x2="430.7796582381518" y1="351.1867531385849" y2="362.8211810422696"/>
<line stroke="green" stroke-width="2" x1="430.7796582381518" x2="440.5039561875005" y1="362.8211810422696" y2="307.671946873586"/>
<line stroke="green" stroke-width="2" x1="440.5039561875005" x2="408.9901080911099" y1="307.671946873586" y2="302.11520518824375"/>
</svg>