<svg height="600" width="800" xmlns="http://www.w3.org/2000/svg">
<line stroke="green" stroke-width="2" x1="400" x2="400" y1="300" y2="338"/>
<line stroke="green" stroke-width="2" x1="400" x2="438" y1="338" y2="338"/>
<line stroke="green" stroke-width="2" x1="438" x2="438" y1="338" y2="300"/>
<line stroke="green" stroke-width="2" x1="438" x2="400" y1="300" y2="300"/>
<line stroke="green" stroke-width="2" x1="400" x2="406.07768621834254" y1="300" y2="334.4682713554273"/>
<line stroke="green" stroke-width="2" x1="406.07768621834254" x2="440.54595757376984" y1="334.4682713554273" y2="328.39058513708477"/>
<line stroke="green" stroke-width="2" x1="440.54595757376984" x2="434.4682713554273" y1="328.39058513708477" y2="293.92231378165746"/>
<line stroke="green" stroke-width="2" x1="434.4682713554273" x2="400" y1="293.92231378165746" y2="300"/>
<line stroke="green" stroke-width="2" x1="400" x2="431.46585318596146" y1="300" y2="386.45172111230363"/>
<line stroke="green" stroke-width="2" x1="431.46585318596146" x2="517.9175742982651" y1="386.45172111230363" y2="354.98586792634217"/>
<line stroke="green" stroke-width="2" x1="517.9175742982651" x2="486.45172111230363" y1="354.98586792634217" y2="268.53414681403854"/>
<line stroke="green" stroke-width="2" x1="486.45172111230363" x2="400" y1="268.53414681403854" y2="300"/>
<line stroke="green" stroke-width="2" x1="400" x2="414" y1="300" y2="324.24871130596426"/>
<line stroke="green" stroke-width="2" x1="414" x2="438.2487113059643" y1="324.24871130596426" y2="310.2487113059643"/>
<line stroke="green" stroke-width="2" x1="438.2487113059643" x2="424.2487113059643" y1="310.2487113059643" y2="286.00000000000006"/>
<line stroke="green" stroke-width="2" x1="424.2487113059643" x2="400" y1="286.00000000000006" y2="300"/>
<line stroke="green" stroke-width="2" x1="400" x2="408.99902653561156" y1="300" y2="310.7246222036657"/>
<line stroke="green" stroke-width="2" x1="408.99902653561156" x2="419.7236487392773" y1="310.7246222036657" y2="301.7255956680542"/>
<line stroke="green" stroke-width="2" x1="419.7236487392773" x2="410.7246222036657" y1="301.7255956680542" y2="291.0009734643885"/>
<line stroke="green" stroke-width="2" x1="410.7246222036657" x2="400" y1="291.0009734643885" y2="300"/>
<line stroke="green" stroke-width="2" x1="400" x2="471.24213321006494" y1="300" y2="359.7792477008482"/>
<line stroke="green" stroke-width="2" x1="471.24213321006494" x2="531.021380910913" y1="359.7792477008482" y2="288.53711449078315"/>
<line stroke="green" stroke-width="2" x1="531.021380910913" x2="459.77924770084826" y1="288.53711449078315" y2="228.7578667899347"/>
<line stroke="green" stroke-width="2" x1="459.77924770084826" x2="399.99999999999994" y1="228.7578667899347" y2="299.99999999999955"/>
<line stroke="green" stroke-width="2" x1="399.99999999999994" x2="456.29165124598853" y1="299.99999999999955" y2="332.4999999999994"/>
<line stroke="green" stroke-width="2" x1="456.29165124598853" x2="488.7916512459887" y1="332.4999999999994" y2="276.20834875401096"/>
<line stroke="green" stroke-width="2" x1="488.7916512459887" x2="432.5000000000002" y1="276.20834875401096" y2="243.7083487540109"/>
<line stroke="green" stroke-width="2" x1="432.5000000000002" x2="400.0000000000003" y1="243.7083487540109" y2="299.99999999999943"/>
<line stroke="green" stroke-width="2" x1="400.0000000000003" x2="444.165553176938" y1="299.99999999999943" y2="316.07494673630595"/>
<line stroke="green" stroke-width="2" x1="444.165553176938" x2="460.2404999132444" y1="316.07494673630595" y2="271.90939355936825"/>
<line stroke="green" stroke-width="2" x1="460.2404999132444" x2="416.07494673630663" y1="271.90939355936825" y2="255.8344468230619"/>
<line stroke="green" stroke-width="2" x1="416.07494673630663" x2="400.00000000000006" y1="255.8344468230619" y2="299.99999999999955"/>
<line stroke="green" stroke-width="2" x1="400.00000000000006" x2="479.7694279939889" y1="299.99999999999955" y2="314.06550239102074"/>
<line stroke="green" stroke-width="2" x1="479.7694279939889" x2="493.8349303850106" y1="314.06550239102074" y2="234.29607439703193"/>
<line stroke="green" stroke-width="2" x1="493.8349303850106" x2="414.06550239102177" y1="234.29607439703193" y2="220.23057200601042"/>
<line stroke="green" stroke-width="2" x1="414.06550239102177" x2="400.0000000000004" y1="220.23057200601042" y2="299.99999999999926"/>
<line stroke="green" stroke-width="2" x1="400.0000000000004" x2="472.0000000000004" y1="299.99999999999926" y2="299.99999999999943"/>
<line stroke="green" stroke-width="2" x1="472.0000000000004" x2="472.00000000000045" y1="299.99999999999943" y2="227.99999999999943"/>
<line stroke="green" stroke-width="2" x1="472.00000000000045" x2="400.00000000000045" y1="227.99999999999943" y2="227.99999999999952"/>
<line stroke="green" stroke-width="2" x1="400.00000000000045" x2="400.00000000000017" y1="227.99999999999952" y2="299.99999999999955"/>
<line stroke="green" stroke-width="2" x1="400.00000000000017" x2="475.83019698194016" y1="299.99999999999955" y2="286.62909031964585"/>
<line stroke="green" stroke-width="2" x1="475.83019698194016" x2="462.4592873015863" y1="286.62909031964585" y2="210.79889333770586"/>
<line stroke="green" stroke-width="2" x1="462.4592873015863" x2="386.62909031964625" y1="210.79889333770586" y2="224.1698030180593"/>
<line stroke="green" stroke-width="2" x1="386.62909031964625" x2="399.99999999999926" y1="224.1698030180593" y2="299.99999999999943"/>
<line stroke="green" stroke-width="2" x1="399.99999999999926" x2="415.0350819325738" y1="299.99999999999943" y2="294.5276777067888"/>
<line stroke="green" stroke-width="2" x1="415.0350819325738" x2="409.56275963936304" y1="294.5276777067888" y2="279.4925957742143"/>
<line stroke="green" stroke-width="2" x1="409.56275963936304" x2="394.5276777067885" y1="279.4925957742143" y2="284.964918067425"/>
<line stroke="green" stroke-width="2" x1="394.5276777067885" x2="399.9999999999991" y1="284.964918067425" y2="299.99999999999955"/>
<line stroke="green" stroke-width="2" x1="399.9999999999991" x2="408.66025403784346" y1="299.99999999999955" y2="294.99999999999955"/>
<line stroke="green" stroke-width="2" x1="408.66025403784346" x2="403.6602540378435" y1="294.99999999999955" y2="286.3397459621551"/>
<line stroke="green" stroke-width="2" x1="403.6602540378435" x2="394.99999999999915" y1="286.3397459621551" y2="291.3397459621552"/>
<line stroke="green" stroke-width="2" x1="394.99999999999915" x2="399.99999999999915" y1="291.3397459621552" y2="299.99999999999955"/>
<line stroke="green" stroke-width="2" x1="399.99999999999915" x2="432.9399110541151" y1="299.99999999999955" y2="272.36013278347826"/>
<line stroke="green" stroke-width="2" x1="432.9399110541151" x2="405.300043837594" y1="272.36013278347826" y2="239.42022172936214"/>
<line stroke="green" stroke-width="2" x1="405.300043837594" x2="372.3601327834777" y1="239.42022172936214" y2="267.0600889458831"/>
<line stroke="green" stroke-width="2" x1="372.3601327834777" x2="399.9999999999989" y1="267.0600889458831" y2="299.9999999999991"/>
<line stroke="green" stroke-width="2" x1="399.9999999999989" x2="407.71345131623747" y1="299.9999999999991" y2="290.80746668257143"/>
<line stroke="green" stroke-width="2" x1="407.71345131623747" x2="398.52091799880975" y1="290.80746668257143" y2="283.09401536633294"/>
<line stroke="green" stroke-width="2" x1="398.52091799880975" x2="390.80746668257126" y1="283.09401536633294" y2="292.28654868376066"/>
<line stroke="green" stroke-width="2" x1="390.80746668257126" x2="399.99999999999903" y1="292.28654868376066" y2="299.9999999999991"/>
<line stroke="green" stroke-width="2" x1="399.99999999999903" x2="405.4999999999991" y1="299.9999999999991" y2="290.4737205583703"/>
<line stroke="green" stroke-width="2" x1="405.4999999999991" x2="395.97372055837025" y1="290.4737205583703" y2="284.97372055837036"/>
<line stroke="green" stroke-width="2" x1="395.97372055837025" x2="390.47372055837025" y1="284.97372055837036" y2="294.4999999999992"/>
<line stroke="green" stroke-width="2" x1="390.47372055837025" x2="399.99999999999903" y1="294.4999999999992" y2="299.99999999999926"/>
<line stroke="green" stroke-width="2" x1="399.99999999999903" x2="428.3876718960297" y1="299.99999999999926" y2="222.00551247476892"/>
<line stroke="green" stroke-width="2" x1="428.3876718960297" x2="350.39318437079953" y1="222.00551247476892" y2="193.61784057873786"/>
<line stroke="green" stroke-width="2" x1="350.39318437079953" x2="322.00551247476915" y1="193.61784057873786" y2="271.6123281039683"/>
<line stroke="green" stroke-width="2" x1="322.00551247476915" x2="399.99999999999943" y1="271.6123281039683" y2="299.9999999999991"/>
<line stroke="green" stroke-width="2" x1="399.99999999999943" x2="416.14928052302383" y1="299.9999999999991" y2="208.41287896986373"/>
<line stroke="green" stroke-width="2" x1="416.14928052302383" x2="324.56215949288855" y1="208.41287896986373" y2="192.26359844683884"/>
<line stroke="green" stroke-width="2" x1="324.56215949288855" x2="308.41287896986444" y1="192.26359844683884" y2="283.8507194769743"/>
<line stroke="green" stroke-width="2" x1="308.41287896986444" x2="399.9999999999998" y1="283.8507194769743" y2="299.99999999999886"/>
<line stroke="green" stroke-width="2" x1="399.9999999999998" x2="399.9999999999995" y1="299.99999999999886" y2="240.99999999999886"/>
<line stroke="green" stroke-width="2" x1="399.9999999999995" x2="340.9999999999995" y1="240.99999999999886" y2="240.9999999999988"/>
<line stroke="green" stroke-width="2" x1="340.9999999999995" x2="340.9999999999991" y1="240.9999999999988" y2="299.9999999999988"/>
<line stroke="green" stroke-width="2" x1="340.9999999999991" x2="399.9999999999991" y1="299.9999999999988" y2="299.99999999999864"/>
<line stroke="green" stroke-width="2" x1="399.9999999999991" x2="383.8507194769752" y1="299.99999999999864" y2="208.4128789698632"/>
<line stroke="green" stroke-width="2" x1="383.8507194769752" x2="292.26359844683986" y1="208.4128789698632" y2="224.5621594928879"/>
<line stroke="green" stroke-width="2" x1="292.26359844683986" x2="308.4128789698641" y1="224.5621594928879" y2="316.1492805230233"/>
<line stroke="green" stroke-width="2" x1="308.4128789698641" x2="399.9999999999996" y1="316.1492805230233" y2="299.9999999999996"/>
<line stroke="green" stroke-width="2" x1="399.9999999999996" x2="378.79475111380833" y1="299.9999999999996" y2="241.7390575112732"/>
<line stroke="green" stroke-width="2" x1="378.79475111380833" x2="320.5338086250821" y1="241.7390575112732" y2="262.94430639746497"/>
<line stroke="green" stroke-width="2" x1="320.5338086250821" x2="341.73905751127353" y1="262.94430639746497" y2="321.20524888619127"/>
<line stroke="green" stroke-width="2" x1="341.73905751127353" x2="400" y1="321.20524888619127" y2="300.0000000000001"/>
<line stroke="green" stroke-width="2" x1="400" x2="384.0000000000004" y1="300.0000000000001" y2="272.28718707889783"/>
<line stroke="green" stroke-width="2" x1="384.0000000000004" x2="356.2871870788985" y1="272.28718707889783" y2="288.28718707889806"/>
<line stroke="green" stroke-width="2" x1="356.2871870788985" x2="372.28718707889857" y1="288.28718707889806" y2="316.00000000000006"/>
<line stroke="green" stroke-width="2" x1="372.28718707889857" x2="400.0000000000006" y1="316.00000000000006" y2="300.0000000000001"/>
<line stroke="green" stroke-width="2" x1="400.0000000000006" x2="383.93030975783734" y1="300.0000000000001" y2="280.8488889220255"/>
<line stroke="green" stroke-width="2" x1="383.93030975783734" x2="364.77919867986304" y1="280.8488889220255" y2="296.91857916418917"/>
<line stroke="green" stroke-width="2" x1="364.77919867986304" x2="380.8488889220266" y1="296.91857916418917" y2="316.0696902421635"/>
<line stroke="green" stroke-width="2" x1="380.8488889220266" x2="400.0000000000011" y1="316.0696902421635" y2="300"/>
<line stroke="green" stroke-width="2" x1="400.0000000000011" x2="382.38097780826473" y1="300" y2="285.21588497720944"/>
<line stroke="green" stroke-width="2" x1="382.38097780826473" x2="367.59686278547406" y1="285.21588497720944" y2="302.83490716894573"/>
<line stroke="green" stroke-width="2" x1="367.59686278547406" x2="385.2158849772107" y1="302.83490716894573" y2="317.61902219173595"/>
<line stroke="green" stroke-width="2" x1="385.2158849772107" x2="400.000000000001" y1="317.61902219173595" y2="299.9999999999994"/>
<line stroke="green" stroke-width="2" x1="400.000000000001" x2="314.2634850253419" y1="299.9999999999994" y2="250.49999999999892"/>
<line stroke="green" stroke-width="2" x1="314.2634850253419" x2="264.76348502534097" y1="250.49999999999892" y2="336.2365149746578"/>
<line stroke="green" stroke-width="2" x1="264.76348502534097" x2="350.4999999999996" y1="336.2365149746578" y2="385.73651497465914"/>
<line stroke="green" stroke-width="2" x1="350.4999999999996" x2="399.99999999999903" y1="385.73651497465914" y2="299.9999999999994"/>
<line stroke="green" stroke-width="2" x1="399.99999999999903" x2="356.7741394438473" y1="299.9999999999994" y2="284.26707340701853"/>
<line stroke="green" stroke-width="2" x1="356.7741394438473" x2="341.0412128508662" y1="284.26707340701853" y2="327.4929339631702"/>
<line stroke="green" stroke-width="2" x1="341.0412128508662" x2="384.2670734070178" y1="327.4929339631702" y2="343.2258605561515"/>
<line stroke="green" stroke-width="2" x1="384.2670734070178" x2="399.9999999999981" y1="343.2258605561515" y2="299.99999999999955"/>
<line stroke="green" stroke-width="2" x1="399.9999999999981" x2="376.36461392770514" y1="299.99999999999955" y2="295.83244373599325"/>
<line stroke="green" stroke-width="2" x1="376.36461392770514" x2="372.1970576636987" y1="295.83244373599325" y2="319.46782980828624"/>
<line stroke="green" stroke-width="2" x1="372.1970576636987" x2="395.8324437359916" y1="319.46782980828624" y2="323.6353860722928"/>
<line stroke="green" stroke-width="2" x1="395.8324437359916" x2="399.9999999999983" y1="323.6353860722928" y2="299.9999999999999"/>
<line stroke="green" stroke-width="2" x1="399.9999999999983" x2="300.9999999999983" y1="299.9999999999999" y2="300.0000000000003"/>
<line stroke="green" stroke-width="2" x1="300.9999999999983" x2="300.9999999999981" y1="300.0000000000003" y2="399.0000000000003"/>
<line stroke="green" stroke-width="2" x1="300.9999999999981" x2="399.9999999999981" y1="399.0000000000003" y2="399.00000000000097"/>
<line stroke="green" stroke-width="2" x1="399.9999999999981" x2="399.9999999999993" y1="399.00000000000097" y2="300.00000000000097"/>
<line stroke="green" stroke-width="2" x1="399.9999999999993" x2="355.68365111445" y1="300.00000000000097" y2="307.8141679950131"/>
<line stroke="green" stroke-width="2" x1="355.68365111445" x2="363.49781910946194" y1="307.8141679950131" y2="352.1305168805625"/>
<line stroke="green" stroke-width="2" x1="363.49781910946194" x2="407.8141679950113" y1="352.1305168805625" y2="344.3163488855508"/>
<line stroke="green" stroke-width="2" x1="407.8141679950113" x2="399.99999999999983" y1="344.3163488855508" y2="300.00000000000136"/>
<line stroke="green" stroke-width="2" x1="399.99999999999983" x2="359.59321730620593" y1="300.00000000000136" y2="314.70686616300554"/>
<line stroke="green" stroke-width="2" x1="359.59321730620593" x2="374.3000834692099" y1="314.70686616300554" y2="355.11364885679956"/>
<line stroke="green" stroke-width="2" x1="374.3000834692099" x2="414.70686616300395" y1="355.11364885679956" y2="340.40678269379583"/>
<line stroke="green" stroke-width="2" x1="414.70686616300395" x2="400.00000000000045" y1="340.40678269379583" y2="300.0000000000017"/>
<line stroke="green" stroke-width="2" x1="400.00000000000045" x2="341.97629794644257" y1="300.0000000000017" y2="333.5000000000008"/>
<line stroke="green" stroke-width="2" x1="341.97629794644257" x2="375.476297946443" y1="333.5000000000008" y2="391.52370205355794"/>
<line stroke="green" stroke-width="2" x1="375.476297946443" x2="433.50000000000034" y1="391.52370205355794" y2="358.0237020535578"/>
<line stroke="green" stroke-width="2" x1="433.50000000000034" x2="400.0000000000005" y1="358.0237020535578" y2="300.00000000000034"/>
<line stroke="green" stroke-width="2" x1="400.0000000000005" x2="350.20711119726644" y1="300.00000000000034" y2="341.7811946296248"/>
<line stroke="green" stroke-width="2" x1="350.20711119726644" x2="391.9883058268906" y1="341.7811946296248" y2="391.5740834323591"/>
<line stroke="green" stroke-width="2" x1="391.9883058268906" x2="441.78119462962394" y1="391.5740834323591" y2="349.7928888027337"/>
<line stroke="green" stroke-width="2" x1="441.78119462962394" x2="399.99999999999886" y1="349.7928888027337" y2="300.00000000000017"/>
<line stroke="green" stroke-width="2" x1="399.99999999999886" x2="353.076504492881" y1="300.00000000000017" y2="355.92124434768516"/>
<line stroke="green" stroke-width="2" x1="353.076504492881" x2="408.9977488405657" y1="355.92124434768516" y2="402.8447398548033"/>
<line stroke="green" stroke-width="2" x1="408.9977488405657" x2="455.9212443476826" y1="402.8447398548033" y2="346.92349550711754"/>
<line stroke="green" stroke-width="2" x1="455.9212443476826" x2="399.99999999999704" y1="346.92349550711754" y2="300.00000000000034"/>
<line stroke="green" stroke-width="2" x1="399.99999999999704" x2="391.999999999997" y1="300.00000000000034" y2="313.8564064605513"/>
<line stroke="green" stroke-width="2" x1="391.999999999997" x2="405.85640646054793" y1="313.8564064605513" y2="321.85640646055145"/>
<line stroke="green" stroke-width="2" x1="405.85640646054793" x2="413.85640646054816" y1="321.85640646055145" y2="308.00000000000057"/>
<line stroke="green" stroke-width="2" x1="413.85640646054816" x2="399.9999999999971" y1="308.00000000000057" y2="300.0000000000007"/>
<line stroke="green" stroke-width="2" x1="399.9999999999971" x2="368.53414681403535" y1="300.0000000000007" y2="386.4517211123042"/>
<line stroke="green" stroke-width="2" x1="368.53414681403535" x2="454.98586792633864" y1="386.4517211123042" y2="417.91757429826646"/>
<line stroke="green" stroke-width="2" x1="454.98586792633864" x2="486.45172111230136" y1="417.91757429826646" y2="331.4658531859633"/>
<line stroke="green" stroke-width="2" x1="486.45172111230136" x2="399.9999999999975" y1="331.4658531859633" y2="300.00000000000256"/>
<line stroke="green" stroke-width="2" x1="399.9999999999975" x2="392.70677653798646" y1="300.00000000000256" y2="341.3619256265153"/>
<line stroke="green" stroke-width="2" x1="392.70677653798646" x2="434.06870216449914" y1="341.3619256265153" y2="348.65514908852657"/>
<line stroke="green" stroke-width="2" x1="434.06870216449914" x2="441.36192562651064" y1="348.65514908852657" y2="307.2932234620139"/>
<line stroke="green" stroke-width="2" x1="441.36192562651064" x2="399.999999999998" y1="307.2932234620139" y2="300.00000000000216"/>
</svg>