<svg height="600" width="800" xmlns="http://www.w3.org/2000/svg">
<line stroke="green" stroke-width="2" x1="400" x2="400" y1="300" y2="355"/>
<line stroke="green" stroke-width="2" x1="400" x2="463" y1="355" y2="355"/>
<line stroke="green" stroke-width="2" x1="463" x2="463" y1="355" y2="313"/>
<line stroke="green" stroke-width="2" x1="463" x2="291" y1="313" y2="313"/>
<line stroke="green" stroke-width="2" x1="291" x2="298.11957528434414" y1="313" y2="353.37711787350054"/>
<line stroke="green" stroke-width="2" x1="298.11957528434414" x2="432.0534296940044" y1="353.37711787350054" y2="329.7609657107981"/>
<line stroke="green" stroke-width="2" x1="432.0534296940044" x2="423.89196534365874" y1="329.7609657107981" y2="283.4750013192243"/>
<line stroke="green" stroke-width="2" x1="423.89196534365874" x2="252.53541631953453" y1="283.4750013192243" y2="313.6897842332701"/>
<line stroke="green" stroke-width="2" x1="252.53541631953453" x2="261.4279400460019" y1="313.6897842332701" y2="338.12179237370367"/>
<line stroke="green" stroke-width="2" x1="261.4279400460019" x2="423.9947634419641" y1="338.12179237370367" y2="278.9523075783631"/>
<line stroke="green" stroke-width="2" x1="423.9947634419641" x2="414.7602195721711" y1="278.9523075783631" y2="253.58060681714358"/>
<line stroke="green" stroke-width="2" x1="414.7602195721711" x2="413.82052695138515" y1="253.58060681714358" y2="253.92262696046924"/>
<line stroke="green" stroke-width="2" x1="413.82052695138515" x2="438.32052695138515" y1="253.92262696046924" y2="296.3578717459067"/>
<line stroke="green" stroke-width="2" x1="438.32052695138515" x2="601.1333028628598" y1="296.3578717459067" y2="202.35787174590695"/>
<line stroke="green" stroke-width="2" x1="601.1333028628598" x2="597.1333028628598" y1="202.35787174590695" y2="195.42966851563145"/>
<line stroke="green" stroke-width="2" x1="597.1333028628598" x2="443.846806393014" y1="195.42966851563145" y2="283.9296685156312"/>
<line stroke="green" stroke-width="2" x1="443.846806393014" x2="450.2746824898794" y1="283.9296685156312" y2="291.59011294682097"/>
<line stroke="green" stroke-width="2" x1="450.2746824898794" x2="457.1690824779502" y1="291.59011294682097" y2="285.80502445964214"/>
<line stroke="green" stroke-width="2" x1="457.1690824779502" x2="444.95611789390597" y1="285.80502445964214" y2="271.25018004038157"/>
<line stroke="green" stroke-width="2" x1="444.95611789390597" x2="321.62296255175033" y1="271.25018004038157" y2="374.73898519991417"/>
<line stroke="green" stroke-width="2" x1="321.62296255175033" x2="471.001628959951" y1="374.73898519991417" y2="500.0825690887894"/>
<line stroke="green" stroke-width="2" x1="471.001628959951" x2="533.3520270995452" y1="500.0825690887894" y2="425.77625810624846"/>
<line stroke="green" stroke-width="2" x1="533.3520270995452" x2="504.2423382610242" y1="425.77625810624846" y2="401.35032893815986"/>
<line stroke="green" stroke-width="2" x1="504.2423382610242" x2="384.68384285932757" y1="401.35032893815986" y2="543.8345953582896"/>
<line stroke="green" stroke-width="2" x1="384.68384285932757" x2="550.96072038594" y1="543.8345953582896" y2="639.8345953582891"/>
<line stroke="green" stroke-width="2" x1="550.96072038594" x2="565.4607203859401" y1="639.8345953582891" y2="614.7198586485405"/>
<line stroke="green" stroke-width="2" x1="565.4607203859401" x2="430.3607573955678" y1="614.7198586485405" y2="536.7198586485404"/>
<line stroke="green" stroke-width="2" x1="430.3607573955678" x2="391.8607573955679" y1="536.7198586485404" y2="603.4038147399422"/>
<line stroke="green" stroke-width="2" x1="391.8607573955679" x2="483.9506342325868" y1="603.4038147399422" y2="636.9217887858579"/>
<line stroke="green" stroke-width="2" x1="483.9506342325868" x2="532.175474441506" y1="636.9217887858579" y2="504.4251292550448"/>
<line stroke="green" stroke-width="2" x1="532.175474441506" x2="474.8542245735656" y1="504.4251292550448" y2="483.56190051217914"/>
<line stroke="green" stroke-width="2" x1="474.8542245735656" x2="443.73039153092947" y1="483.56190051217914" y2="569.0739290036967"/>
<line stroke="green" stroke-width="2" x1="443.73039153092947" x2="560.9225141393822" y1="569.0739290036967" y2="589.7380621460611"/>
<line stroke="green" stroke-width="2" x1="560.9225141393822" x2="566.652904002391" y1="589.7380621460611" y2="557.2394062966582"/>
<line stroke="green" stroke-width="2" x1="566.652904002391" x2="451.4303968999627" y1="557.2394062966582" y2="536.9225695096271"/>
<line stroke="green" stroke-width="2" x1="451.4303968999627" x2="429.5507265139295" y1="536.9225695096271" y2="661.0083463891654"/>
<line stroke="green" stroke-width="2" x1="429.5507265139295" x2="627.5507265139295" y1="661.0083463891654" y2="661.0083463891658"/>
<line stroke="green" stroke-width="2" x1="627.5507265139295" x2="627.5507265139296" y1="661.0083463891658" y2="471.0083463891658"/>
<line stroke="green" stroke-width="2" x1="627.5507265139296" x2="461.5507265139296" y1="471.0083463891658" y2="471.00834638916604"/>
<line stroke="green" stroke-width="2" x1="461.5507265139296" x2="461.5507265139289" y1="471.00834638916604" y2="636.008346389166"/>
<line stroke="green" stroke-width="2" x1="461.5507265139289" x2="542.30496226093" y1="636.008346389166" y2="621.7691958204776"/>
<line stroke="green" stroke-width="2" x1="542.30496226093" x2="518.3415137428932" y1="621.7691958204776" y2="485.865725904793"/>
<line stroke="green" stroke-width="2" x1="518.3415137428932" x2="508.4934362127711" y1="485.865725904793" y2="487.6022076814623"/>
<line stroke="green" stroke-width="2" x1="508.4934362127711" x2="514.3974742534465" y1="487.6022076814623" y2="521.0856712838774"/>
<line stroke="green" stroke-width="2" x1="514.3974742534465" x2="687.3009164780539" y1="521.0856712838774" y2="458.1539649119549"/>
<line stroke="green" stroke-width="2" x1="687.3009164780539" x2="660.6233452986513" y1="458.1539649119549" y2="384.8579404906542"/>
<line stroke="green" stroke-width="2" x1="660.6233452986513" x2="612.69902163857" y1="384.8579404906542" y2="402.3009678002633"/>
<line stroke="green" stroke-width="2" x1="612.69902163857" x2="623.6436662249912" y1="402.3009678002633" y2="432.37113166541246"/>
<line stroke="green" stroke-width="2" x1="623.6436662249912" x2="717.1744098337106" y1="432.37113166541246" y2="378.37113166541246"/>
<line stroke="green" stroke-width="2" x1="717.1744098337106" x2="673.674409833711" y1="378.37113166541246" y2="303.02692153616607"/>
<line stroke="green" stroke-width="2" x1="673.674409833711" x2="521.2539387676501" y1="303.02692153616607" y2="391.0269215361666"/>
<line stroke="green" stroke-width="2" x1="521.2539387676501" x2="565.75393876765" y1="391.0269215361666" y2="468.1031824729817"/>
<line stroke="green" stroke-width="2" x1="565.75393876765" x2="665.3397163731169" y1="468.1031824729817" y2="384.54079321373126"/>
<line stroke="green" stroke-width="2" x1="665.3397163731169" x2="619.7017960853727" y1="384.54079321373126" y2="330.1516377522837"/>
<line stroke="green" stroke-width="2" x1="619.7017960853727" x2="522.4141518092619" y1="330.1516377522837" y2="411.78566418247345"/>
<line stroke="green" stroke-width="2" x1="522.4141518092619" x2="560.3386207807678" y1="411.78566418247345" y2="456.9822863264931"/>
<line stroke="green" stroke-width="2" x1="560.3386207807678" x2="596.3347269232144" y1="456.9822863264931" y2="414.08379751183065"/>
<line stroke="green" stroke-width="2" x1="596.3347269232144" x2="579.4817491745969" y1="414.08379751183065" y2="399.9424700987268"/>
<line stroke="green" stroke-width="2" x1="579.4817491745969" x2="520.345289083435" y1="399.9424700987268" y2="470.4185588656725"/>
<line stroke="green" stroke-width="2" x1="520.345289083435" x2="649.0407555274237" y1="470.4185588656725" y2="578.4068772930106"/>
<line stroke="green" stroke-width="2" x1="649.0407555274237" x2="708.0407555274242" y1="578.4068772930106" y2="476.2158796464471"/>
<line stroke="green" stroke-width="2" x1="708.0407555274242" x2="602.3856562657224" y1="476.2158796464471" y2="415.2158796464475"/>
<line stroke="green" stroke-width="2" x1="602.3856562657224" x2="580.3856562657224" y1="415.2158796464475" y2="453.32099741296275"/>
<line stroke="green" stroke-width="2" x1="580.3856562657224" x2="695.5670349690523" y1="453.32099741296275" y2="519.8209974129635"/>
<line stroke="green" stroke-width="2" x1="695.5670349690523" x2="715.7462234252669" y1="519.8209974129635" y2="464.37913278659494"/>
<line stroke="green" stroke-width="2" x1="715.7462234252669" x2="707.2889898381937" y1="464.37913278659494" y2="461.30095149666386"/>
<line stroke="green" stroke-width="2" x1="707.2889898381937" x2="700.1065668283547" y1="461.30095149666386" y2="481.03449653316795"/>
<line stroke="green" stroke-width="2" x1="700.1065668283547" x2="876.7687795361053" y1="481.03449653316795" y2="545.3342834783944"/>
<line stroke="green" stroke-width="2" x1="876.7687795361053" x2="890.6606337494596" y1="545.3342834783944" y2="466.5496632374177"/>
<line stroke="green" stroke-width="2" x1="890.6606337494596" x2="818.7696677795685" y1="466.5496632374177" y2="453.8733462677315"/>
<line stroke="green" stroke-width="2" x1="818.7696677795685" x2="788.7285330431904" y1="453.8733462677315" y2="624.2450875388437"/>
<line stroke="green" stroke-width="2" x1="788.7285330431904" x2="905.9206556516431" y1="624.2450875388437" y2="644.9092206812085"/>
<line stroke="green" stroke-width="2" x1="905.9206556516431" x2="905.9206556516425" y1="644.9092206812085" y2="528.9092206812085"/>
<line stroke="green" stroke-width="2" x1="905.9206556516425" x2="709.9206556516425" y1="528.9092206812085" y2="528.9092206812082"/>
<line stroke="green" stroke-width="2" x1="709.9206556516425" x2="709.9206556516414" y1="528.9092206812082" y2="713.9092206812082"/>
<line stroke="green" stroke-width="2" x1="709.9206556516414" x2="822.9206556516414" y1="713.9092206812082" y2="713.909220681208"/>
<line stroke="green" stroke-width="2" x1="822.9206556516414" x2="791.6639836715951" y1="713.909220681208" y2="536.6438251390103"/>
<line stroke="green" stroke-width="2" x1="791.6639836715951" x2="721.7426332077284" y1="536.6438251390103" y2="548.9728457533625"/>
<line stroke="green" stroke-width="2" x1="721.7426332077284" x2="746.5743226140991" y1="548.9728457533625" y2="689.8003544341084"/>
<line stroke="green" stroke-width="2" x1="746.5743226140991" x2="900.2043320840038" y1="689.8003544341084" y2="662.7112387180686"/>
<line stroke="green" stroke-width="2" x1="900.2043320840038" x2="845.823129295223" y1="662.7112387180686" y2="513.3001120131089"/>
<line stroke="green" stroke-width="2" x1="845.823129295223" x2="721.7837033514834" y1="513.3001120131089" y2="558.4467709320978"/>
<line stroke="green" stroke-width="2" x1="721.7837033514834" x2="773.0867248503337" y1="558.4467709320978" y2="699.400664049984"/>
<line stroke="green" stroke-width="2" x1="773.0867248503337" x2="853.9002902379219" y1="699.400664049984" y2="669.9869317239769"/>
<line stroke="green" stroke-width="2" x1="853.9002902379219" x2="805.4002902379232" y1="669.9869317239769" y2="585.9824675568857"/>
<line stroke="green" stroke-width="2" x1="805.4002902379232" x2="775.9554265092524" y1="585.9824675568857" y2="602.9824675568859"/>
<line stroke="green" stroke-width="2" x1="775.9554265092524" x2="800.4554265092526" y1="602.9824675568859" y2="645.4177123423233"/>
<line stroke="green" stroke-width="2" x1="800.4554265092526" x2="930.3592370769186" y1="645.4177123423233" y2="570.4177123423236"/>
<line stroke="green" stroke-width="2" x1="930.3592370769186" x2="882.7929539601154" y1="570.4177123423236" y2="513.7304235515187"/>
<line stroke="green" stroke-width="2" x1="882.7929539601154" x2="838.3623762592151" y1="513.7304235515187" y2="551.0121049133385"/>
<line stroke="green" stroke-width="2" x1="838.3623762592151" x2="850.5753408432595" y1="551.0121049133385" y2="565.5669493325989"/>
<line stroke="green" stroke-width="2" x1="850.5753408432595" x2="855.1716075019733" y1="565.5669493325989" y2="561.7102236744797"/>
<line stroke="green" stroke-width="2" x1="855.1716075019733" x2="766.3104521001725" y1="561.7102236744797" y2="487.1468609508404"/>
<line stroke="green" stroke-width="2" x1="766.3104521001725" x2="664.7500097696976" y1="487.1468609508404" y2="608.1818829636375"/>
<line stroke="green" stroke-width="2" x1="664.7500097696976" x2="673.9425430871254" y1="608.1818829636375" y2="615.8953342798759"/>
<line stroke="green" stroke-width="2" x1="673.9425430871254" x2="790.2871004403885" y1="615.8953342798759" y2="477.24129007534043"/>
<line stroke="green" stroke-width="2" x1="790.2871004403885" x2="669.9095693143519" y1="477.24129007534043" y2="407.74129007533975"/>
<line stroke="green" stroke-width="2" x1="669.9095693143519" x2="627.4095693143511" y1="407.74129007533975" y2="481.35344939701656"/>
<line stroke="green" stroke-width="2" x1="627.4095693143511" x2="712.2800588852252" y1="481.35344939701656" y2="530.3534493970179"/>
<line stroke="green" stroke-width="2" x1="712.2800588852252" x2="795.7800588852242" y1="530.3534493970179" y2="385.7272069650161"/>
<line stroke="green" stroke-width="2" x1="795.7800588852242" x2="712.1474156352784" y1="385.7272069650161" y2="355.2874142090314"/>
<line stroke="green" stroke-width="2" x1="712.1474156352784" x2="657.4241927031703" y1="355.2874142090314" y2="505.6382335347763"/>
<line stroke="green" stroke-width="2" x1="657.4241927031703" x2="758.910995748048" y1="505.6382335347763" y2="542.5764090139498"/>
<line stroke="green" stroke-width="2" x1="758.910995748048" x2="783.5364460674955" y1="542.5764090139498" y2="474.9185403173642"/>
<line stroke="green" stroke-width="2" x1="783.5364460674955" x2="649.6025916578352" y1="474.9185403173642" y2="451.3023881546618"/>
<line stroke="green" stroke-width="2" x1="649.6025916578352" x2="635.1897929114796" y1="451.3023881546618" y2="533.041431654675"/>
<line stroke="green" stroke-width="2" x1="635.1897929114796" x2="689.3542193271509" y1="533.041431654675" y2="542.5920814263567"/>
<line stroke="green" stroke-width="2" x1="689.3542193271509" x2="690.5697565708194" y1="542.5920814263567" y2="535.6984271552712"/>
<line stroke="green" stroke-width="2" x1="690.5697565708194" x2="575.5697565708194" y1="535.6984271552712" y2="535.6984271552717"/>
<line stroke="green" stroke-width="2" x1="575.5697565708194" x2="575.5697565708194" y1="535.6984271552717" y2="536.6984271552717"/>
<line stroke="green" stroke-width="2" x1="575.5697565708194" x2="606.5697565708194" y1="536.6984271552717" y2="536.6984271552719"/>
<line stroke="green" stroke-width="2" x1="606.5697565708194" x2="606.5697565708201" y1="536.6984271552719" y2="476.69842715527193"/>
<line stroke="green" stroke-width="2" x1="606.5697565708201" x2="491.3472494683919" y1="476.69842715527193" y2="497.0152639423036"/>
<line stroke="green" stroke-width="2" x1="491.3472494683919" x2="519.9991987834356" y1="497.0152639423036" y2="659.5085431893178"/>
<line stroke="green" stroke-width="2" x1="519.9991987834356" x2="591.8901647533269" y1="659.5085431893178" y2="646.8322262196322"/>
<line stroke="green" stroke-width="2" x1="591.8901647533269" x2="587.20166395632" y1="646.8322262196322" y2="620.2424168883025"/>
<line stroke="green" stroke-width="2" x1="587.20166395632" x2="571.2268894029596" y1="620.2424168883025" y2="626.056759324839"/>
<line stroke="green" stroke-width="2" x1="571.2268894029596" x2="622.5299109018106" y1="626.056759324839" y2="767.0106524427251"/>
<line stroke="green" stroke-width="2" x1="622.5299109018106" x2="720.2579434635451" y1="767.0106524427251" y2="731.4405575368556"/>
<line stroke="green" stroke-width="2" x1="720.2579434635451" x2="701.4468355806337" y1="731.4405575368556" y2="679.7574633936306"/>
<line stroke="green" stroke-width="2" x1="701.4468355806337" x2="607.9160919719135" y1="679.7574633936306" y2="733.7574633936292"/>
<line stroke="green" stroke-width="2" x1="607.9160919719135" x2="696.9160919719147" y1="733.7574633936292" y2="887.9099852672587"/>
<line stroke="green" stroke-width="2" x1="696.9160919719147" x2="753.2077432179032" y1="887.9099852672587" y2="855.4099852672585"/>
<line stroke="green" stroke-width="2" x1="753.2077432179032" x2="700.2077432179034" y1="855.4099852672585" y2="763.6112924661079"/>
<line stroke="green" stroke-width="2" x1="700.2077432179034" x2="652.7129877445262" y1="763.6112924661079" y2="803.4641242666728"/>
<line stroke="green" stroke-width="2" x1="652.7129877445262" x2="699.6364832516426" y1="803.4641242666728" y2="859.385368614359"/>
<line stroke="green" stroke-width="2" x1="699.6364832516426" x2="726.4480387608068" y1="859.385368614359" y2="836.8878022753299"/>
<line stroke="green" stroke-width="2" x1="726.4480387608068" x2="692.3802954474202" y1="836.8878022753299" y2="796.2874467900241"/>
<line stroke="green" stroke-width="2" x1="692.3802954474202" x2="669.882729108391" y1="796.2874467900241" y2="823.0990022991881"/>
<line stroke="green" stroke-width="2" x1="669.882729108391" x2="689.7998846294842" y1="823.0990022991881" y2="839.8114801510384"/>
<line stroke="green" stroke-width="2" x1="689.7998846294842" x2="691.7282474585437" y1="839.8114801510384" y2="837.5133468216815"/>
<line stroke="green" stroke-width="2" x1="691.7282474585437" x2="654.1920697457136" y1="837.5133468216815" y2="806.0167539470411"/>
<line stroke="green" stroke-width="2" x1="654.1920697457136" x2="564.1920697457127" y1="806.0167539470411" y2="961.9013266282395"/>
<line stroke="green" stroke-width="2" x1="564.1920697457127" x2="709.6843375814975" y1="961.9013266282395" y2="1045.9013266282411"/>
<line stroke="green" stroke-width="2" x1="709.6843375814975" x2="767.1843375814992" y1="1045.9013266282411" y2="946.3084051930316"/>
<line stroke="green" stroke-width="2" x1="767.1843375814992" x2="617.3619427267909" y1="946.3084051930316" y2="859.8084051930325"/>
<line stroke="green" stroke-width="2" x1="617.3619427267909" x2="556.824377358147" y1="859.8084051930325" y2="1026.133999072138"/>
<line stroke="green" stroke-width="2" x1="556.824377358147" x2="661.1302582653825" y1="1026.133999072138" y2="1064.0982349812882"/>
<line stroke="green" stroke-width="2" x1="661.1302582653825" x2="724.4039847806336" y1="1064.0982349812882" y2="890.255100135896"/>
<line stroke="green" stroke-width="2" x1="724.4039847806336" x2="539.284538485809" y1="890.255100135896" y2="822.877131900741"/>
<line stroke="green" stroke-width="2" x1="539.284538485809" x2="534.7696858664688" y1="822.877131900741" y2="848.4821334790585"/>
<line stroke="green" stroke-width="2" x1="534.7696858664688" x2="594.8429588002134" y1="848.4821334790585" y2="859.0746723167415"/>
<line stroke="green" stroke-width="2" x1="594.8429588002134" x2="617.4172218969156" y1="859.0746723167415" y2="731.0496644251547"/>
<line stroke="green" stroke-width="2" x1="617.4172218969156" x2="559.3135644691955" y1="731.0496644251547" y2="720.8044219428049"/>
</svg>