<svg height="600" width="800" xmlns="http://www.w3.org/2000/svg">
<line stroke="black" stroke-width="2" x1="500" x2="500" y1="300" y2="299"/>
<line stroke="black" stroke-width="2" x1="500" x2="500" y1="299" y2="298"/>
<line stroke="black" stroke-width="2" x1="500" x2="500" y1="298" y2="295"/>
<line stroke="black" stroke-width="2" x1="500" x2="500" y1="295" y2="294"/>
<line stroke="black" stroke-width="2" x1="500" x2="500" y1="294" y2="292"/>
<line stroke="black" stroke-width="2" x1="500" x2="500" y1="292" y2="289"/>
<line stroke="black" stroke-width="2" x1="500" x2="500" y1="289" y2="286"/>
<line stroke="black" stroke-width="2" x1="500" x2="500" y1="286" y2="285"/>
<line stroke="black" stroke-width="2" x1="500" x2="500" y1="285" y2="284"/>
<line stroke="black" stroke-width="2" x1="500" x2="500" y1="284" y2="281"/>
<line stroke="black" stroke-width="2" x1="500" x2="500" y1="281" y2="278"/>
<line stroke="black" stroke-width="2" x1="500" x2="500" y1="278" y2="276"/>
<line stroke="black" stroke-width="2" x1="500" x2="500" y1="276" y2="275"/>
<line stroke="black" stroke-width="2" x1="500" x2="500" y1="275" y2="272"/>
<line stroke="black" stroke-width="2" x1="500" x2="500" y1="272" y2="271"/>
<line stroke="black" stroke-width="2" x1="500" x2="500" y1="271" y2="269"/>
<line stroke="black" stroke-width="2" x1="500" x2="500" y1="269" y2="268"/>
<line stroke="black" stroke-width="2" x1="500" x2="500" y1="268" y2="267"/>
<line stroke="black" stroke-width="2" x1="500" x2="500" y1="267" y2="265"/>
<line stroke="black" stroke-width="2" x1="500" x2="500" y1="265" y2="262"/>
<line stroke="black" stroke-width="2" x1="500" x2="500" y1="262" y2="260"/>
<line stroke="black" stroke-width="2" x1="500" x2="500" y1="260" y2="259"/>
<line stroke="black" stroke-width="2" x1="500" x2="500" y1="259" y2="257"/>
<line stroke="black" stroke-width="2" x1="500" x2="500" y1="257" y2="255"/>
<line stroke="black" stroke-width="2" x1="500" x2="500" y1="255" y2="254"/>
<line stroke="black" stroke-width="2" x1="500" x2="500" y1="254" y2="252"/>
<line stroke="black" stroke-width="2" x1="500" x2="500" y1="252" y2="250"/>
<line stroke="black" stroke-width="2" x1="500" x2="500" y1="250" y2="247"/>
<line stroke="black" stroke-width="2" x1="500" x2="500" y1="247" y2="244"/>
<line stroke="black" stroke-width="2" x1="500" x2="500" y1="244" y2="242"/>
<line stroke="black" stroke-width="2" x1="500" x2="500" y1="242" y2="240"/>
<line stroke="black" stroke-width="2" x1="500" x2="500" y1="240" y2="239"/>
<line stroke="black" stroke-width="2" x1="500" x2="500" y1="239" y2="237"/>
<line stroke="black" stroke-width="2" x1="500" x2="500" y1="237" y2="235"/>
<line stroke="black" stroke-width="2" x1="500" x2="500" y1="235" y2="233"/>
<line stroke="black" stroke-width="2" x1="500" x2="500" y1="233" y2="231"/>
<line stroke="black" stroke-width="2" x1="500" x2="500" y1="231" y2="230"/>
<line stroke="black" stroke-width="2" x1="500" x2="500" y1="230" y2="227"/>
<line stroke="black" stroke-width="2" x1="500" x2="500" y1="227" y2="224"/>
<line stroke="black" stroke-width="2" x1="500" x2="500" y1="224" y2="221"/>
<line stroke="black" stroke-width="2" x1="500" x2="500" y1="221" y2="220"/>
<line stroke="black" stroke-width="2" x1="500" x2="500" y1="220" y2="218"/>
<line stroke="black" stroke-width="2" x1="500" x2="500" y1="218" y2="216"/>
<line stroke="black" stroke-width="2" x1="500" x2="500" y1="216" y2="213"/>
<line stroke="black" stroke-width="2" x1="500" x2="500" y1="213" y2="210"/>
<line stroke="black" stroke-width="2" x1="500" x2="500" y1="210" y2="208"/>
<line stroke="black" stroke-width="2" x1="500" x2="500" y1="208" y2="206"/>
<line stroke="black" stroke-width="2" x1="500" x2="500" y1="206" y2="204"/>
<line stroke="black" stroke-width="2" x1="500" x2="500" y1="204" y2="203"/>
<line stroke="black" stroke-width="2" x1="500" x2="500" y1="203" y2="200"/>
<line stroke="black" stroke-width="2" x1="500" x2="500" y1="200" y2="198"/>
<line stroke="black" stroke-width="2" x1="500" x2="500" y1="198" y2="197"/>
<line stroke="black" stroke-width="2" x1="500" x2="500" y1="197" y2="195"/>
<line stroke="black" stroke-width="2" x1="500" x2="500" y1="195" y2="193"/>
<line stroke="black" stroke-width="2" x1="500" x2="500" y1="193" y2="191"/>
<line stroke="black" stroke-width="2" x1="500" x2="500" y1="191" y2="188"/>
<line stroke="black" stroke-width="2" x1="500" x2="500" y1="188" y2="185"/>
<line stroke="black" stroke-width="2" x1="500" x2="500" y1="185" y2="182"/>
<line stroke="black" stroke-width="2" x1="500" x2="500" y1="182" y2="181"/>
<line stroke="black" stroke-width="2" x1="500" x2="500" y1="181" y2="178"/>
<line stroke="black" stroke-width="2" x1="500" x2="500" y1="178" y2="175"/>
<line stroke="black" stroke-width="2" x1="500" x2="500" y1="175" y2="173"/>
<line stroke="black" stroke-width="2" x1="500" x2="500" y1="173" y2="171"/>
<line stroke="black" stroke-width="2" x1="500" x2="500" y1="171" y2="169"/>
<line stroke="black" stroke-width="2" x1="500" x2="500" y1="169" y2="168"/>
<line stroke="black" stroke-width="2" x1="500" x2="500" y1="168" y2="166"/>
<line stroke="black" stroke-width="2" x1="500" x2="500" y1="166" y2="164"/>
<line stroke="black" stroke-width="2" x1="500" x2="500" y1="164" y2="162"/>
<line stroke="black" stroke-width="2" x1="500" x2="500" y1="162" y2="159"/>
<line stroke="black" stroke-width="2" x1="500" x2="500" y1="159" y2="158"/>
<line stroke="black" stroke-width="2" x1="500" x2="500" y1="158" y2="157"/>
<line stroke="black" stroke-width="2" x1="500" x2="500" y1="157" y2="154"/>
<line stroke="black" stroke-width="2" x1="500" x2="500" y1="154" y2="152"/>
<line stroke="black" stroke-width="2" x1="500" x2="500" y1="152" y2="151"/>
<line stroke="black" stroke-width="2" x1="500" x2="500" y1="151" y2="150"/>
<line stroke="black" stroke-width="2" x1="500" x2="500" y1="150" y2="149"/>
<line stroke="black" stroke-width="2" x1="500" x2="500" y1="149" y2="146"/>
<line stroke="black" stroke-width="2" x1="500" x2="500" y1="146" y2="145"/>
<line stroke="black" stroke-width="2" x1="500" x2="500" y1="145" y2="143"/>
<line stroke="black" stroke-width="2" x1="500" x2="500" y1="143" y2="142"/>
<line stroke="black" stroke-width="2" x1="500" x2="500" y1="142" y2="141"/>
<line stroke="black" stroke-width="2" x1="500" x2="500" y1="141" y2="140"/>
<line stroke="black" stroke-width="2" x1="500" x2="500" y1="140" y2="137"/>
<line stroke="black" stroke-width="2" x1="500" x2="500" y1="137" y2="134"/>
<line stroke="black" stroke-width="2" x1="500" x2="500" y1="134" y2="133"/>
<line stroke="black" stroke-width="2" x1="500" x2="500" y1="133" y2="131"/>
<line stroke="black" stroke-width="2" x1="500" x2="500" y1="131" y2="129"/>
<line stroke="black" stroke-width="2" x1="500" x2="500" y1="129" y2="128"/>
<line stroke="black" stroke-width="2" x1="500" x2="500" y1="128" y2="127"/>
<line stroke="black" stroke-width="2" x1="500" x2="500" y1="127" y2="126"/>
<line stroke="black" stroke-width="2" x1="500" x2="500" y1="126" y2="123"/>
<line stroke="black" stroke-width="2" x1="500" x2="500" y1="123" y2="121"/>
<line stroke="black" stroke-width="2" x1="500" x2="500" y1="121" y2="120"/>
<line stroke="black" stroke-width="2" x1="500" x2="500" y1="120" y2="118"/>
<line stroke="black" stroke-width="2" x1="500" x2="500" y1="118" y2="116"/>
<line stroke="black" stroke-width="2" x1="500" x2="500" y1="116" y2="113"/>
<line stroke="black" stroke-width="2" x1="500" x2="500" y1="113" y2="110"/>
<line stroke="black" stroke-width="2" x1="500" x2="500" y1="110" y2="109"/>
<line stroke="black" stroke-width="2" x1="500" x2="500" y1="109" y2="106"/>
<line stroke="black" stroke-width="2" x1="500" x2="500" y1="106" y2="104"/>
<line stroke="black" stroke-width="2" x1="500" x2="500" y1="104" y2="102"/>
<line stroke="black" stroke-width="2" x1="500" x2="500" y1="102" y2="101"/>
<line stroke="black" stroke-width="2" x1="500" x2="500" y1="101" y2="99"/>
<line stroke="black" stroke-width="2" x1="500" x2="500" y1="99" y2="97"/>
<line stroke="black" stroke-width="2" x1="500" x2="500" y1="97" y2="96"/>
<line stroke="black" stroke-width="2" x1="500" x2="500" y1="96" y2="94"/>
<line stroke="black" stroke-width="2" x1="500" x2="500" y1="94" y2="91"/>
<line stroke="black" stroke-width="2" x1="500" x2="500" y1="91" y2="88"/>
<line stroke="black" stroke-width="2" x1="500" x2="500" y1="88" y2="87"/>
<line stroke="black" stroke-width="2" x1="500" x2="500" y1="87" y2="86"/>
<line stroke="black" stroke-width="2" x1="500" x2="500" y1="86" y2="85"/>
<line stroke="black" stroke-width="2" x1="500" x2="500" y1="85" y2="84"/>
<line stroke="black" stroke-width="2" x1="500" x2="500" y1="84" y2="83"/>
<line stroke="black" stroke-width="2" x1="500" x2="500" y1="83" y2="80"/>
<line stroke="black" stroke-width="2" x1="500" x2="500" y1="80" y2="79"/>
<line stroke="black" stroke-width="2" x1="500" x2="500" y1="79" y2="76"/>
<line stroke="black" stroke-width="2" x1="500" x2="500" y1="76" y2="75"/>
<line stroke="black" stroke-width="2" x1="500" x2="500" y1="75" y2="72"/>
<line stroke="black" stroke-width="2" x1="500" x2="500" y1="72" y2="70"/>
<line stroke="black" stroke-width="2" x1="500" x2="500" y1="70" y2="67"/>
<line stroke="black" stroke-width="2" x1="500" x2="500" y1="67" y2="64"/>
<line stroke="black" stroke-width="2" x1="500" x2="500" y1="64" y2="61"/>
<line stroke="black" stroke-width="2" x1="500" x2="500" y1="61" y2="60"/>
<line stroke="black" stroke-width="2" x1="500" x2="500" y1="60" y2="57"/>
<line stroke="black" stroke-width="2" x1="500" x2="500" y1="57" y2="55"/>
<line stroke="black" stroke-width="2" x1="500" x2="500" y1="55" y2="54"/>
<line stroke="black" stroke-width="2" x1="500" x2="500" y1="54" y2="52"/>
<line stroke="black" stroke-width="2" x1="500" x2="500" y1="52" y2="50"/>
<line stroke="black" stroke-width="2" x1="500" x2="500" y1="50" y2="49"/>
<line stroke="black" stroke-width="2" x1="500" x2="500" y1="49" y2="48"/>
<line stroke="black" stroke-width="2" x1="500" x2="500" y1="48" y2="47"/>
<line stroke="black" stroke-width="2" x1="500" x2="500" y1="47" y2="45"/>
<line stroke="black" stroke-width="2" x1="500" x2="500" y1="45" y2="43"/>
<line stroke="black" stroke-width="2" x1="500" x2="500" y1="43" y2="41"/>
<line stroke="black" stroke-width="2" x1="500" x2="500" y1="41" y2="39"/>
<line stroke="black" stroke-width="2" x1="500" x2="500" y1="39" y2="38"/>
<line stroke="black" stroke-width="2" x1="500" x2="500" y1="38" y2="36"/>
<line stroke="black" stroke-width="2" x1="500" x2="500" y1="36" y2="34"/>
<line stroke="black" stroke-width="2" x1="500" x2="500" y1="34" y2="33"/>
<line stroke="black" stroke-width="2" x1="500" x2="500" y1="33" y2="32"/>
<line stroke="black" stroke-width="2" x1="500" x2="500" y1="32" y2="30"/>
<line stroke="black" stroke-width="2" x1="500" x2="500" y1="30" y2="28"/>
<line stroke="black" stroke-width="2" x1="500" x2="500" y1="28" y2="26"/>
<line stroke="black" stroke-width="2" x1="500" x2="500" y1="26" y2="23"/>
<line stroke="black" stroke-width="2" x1="500" x2="500" y1="23" y2="20"/>
<line stroke="black" stroke-width="2" x1="500" x2="500" y1="20" y2="17"/>
<line stroke="black" stroke-width="2" x1="500" x2="500" y1="17" y2="16"/>
<line stroke="black" stroke-width="2" x1="500" x2="500" y1="16" y2="13"/>
<line stroke="black" stroke-width="2" x1="500" x2="500" y1="13" y2="11"/>
<line stroke="black" stroke-width="2" x1="500" x2="500" y1="11" y2="10"/>
<line stroke="black" stroke-width="2" x1="500" x2="500" y1="10" y2="9"/>
<line stroke="black" stroke-width="2" x1="500" x2="500" y1="9" y2="8"/>
<line stroke="black" stroke-width="2" x1="500" x2="500" y1="8" y2="7"/>
<line stroke="black" stroke-width="2" x1="500" x2="500" y1="7" y2="5"/>
<line stroke="black" stroke-width="2" x1="500" x2="500" y1="5" y2="3"/>
<line stroke="black" stroke-width="2" x1="500" x2="500" y1="3" y2="1"/>
<line stroke="black" stroke-width="2" x1="500" x2="500" y1="1" y2="-1"/>
<line stroke="black" stroke-width="2" x1="500" x2="500" y1="-1" y2="-4"/>
<line stroke="black" stroke-width="2" x1="500" x2="500" y1="-4" y2="-6"/>
<line stroke="black" stroke-width="2" x1="500" x2="500" y1="-6" y2="-9"/>
<line stroke="black" stroke-width="2" x1="500" x2="500" y1="-9" y2="-10"/>
<line stroke="black" stroke-width="2" x1="500" x2="500" y1="-10" y2="-12"/>
<line stroke="black" stroke-width="2" x1="500" x2="500" y1="-12" y2="-14"/>
<line stroke="black" stroke-width="2" x1="500" x2="500" y1="-14" y2="-17"/>
<line stroke="black" stroke-width="2" x1="500" x2="500" y1="-17" y2="-19"/>
<line stroke="black" stroke-width="2" x1="500" x2="500" y1="-19" y2="-22"/>
<line stroke="black" stroke-width="2" x1="500" x2="500" y1="-22" y2="-25"/>
<line stroke="black" stroke-width="2" x1="500" x2="500" y1="-25" y2="-28"/>
<line stroke="black" stroke-width="2" x1="500" x2="500" y1="-28" y2="-30"/>
<line stroke="black" stroke-width="2" x1="500" x2="500" y1="-30" y2="-33"/>
<line stroke="black" stroke-width="2" x1="500" x2="500" y1="-33" y2="-36"/>
<line stroke="black" stroke-width="2" x1="500" x2="500" y1="-36" y2="-39"/>
<line stroke="black" stroke-width="2" x1="500" x2="500" y1="-39" y2="-42"/>
<line stroke="black" stroke-width="2" x1="500" x2="500" y1="-42" y2="-43"/>
<line stroke="black" stroke-width="2" x1="500" x2="500" y1="-43" y2="-46"/>
<line stroke="black" stroke-width="2" x1="500" x2="500" y1="-46" y2="-48"/>
<line stroke="black" stroke-width="2" x1="500" x2="500" y1="-48" y2="-50"/>
<line stroke="black" stroke-width="2" x1="500" x2="500" y1="-50" y2="-51"/>
<line stroke="black" stroke-width="2" x1="500" x2="500" y1="-51" y2="-54"/>
<line stroke="black" stroke-width="2" x1="500" x2="500" y1="-54" y2="-57"/>
<line stroke="black" stroke-width="2" x1="500" x2="500" y1="-57" y2="-59"/>
<line stroke="black" stroke-width="2" x1="500" x2="500" y1="-59" y2="-60"/>
<line stroke="black" stroke-width="2" x1="500" x2="500" y1="-60" y2="-62"/>
<line stroke="black" stroke-width="2" x1="500" x2="500" y1="-62" y2="-64"/>
<line stroke="black" stroke-width="2" x1="500" x2="500" y1="-64" y2="-66"/>
<line stroke="black" stroke-width="2" x1="500" x2="500" y1="-66" y2="-68"/>
<line stroke="black" stroke-width="2" x1="500" x2="500" y1="-68" y2="-71"/>
<line stroke="black" stroke-width="2" x1="500" x2="500" y1="-71" y2="-72"/>
<line stroke="black" stroke-width="2" x1="500" x2="500" y1="-72" y2="-73"/>
<line stroke="black" stroke-width="2" x1="500" x2="500" y1="-73" y2="-74"/>
<line stroke="black" stroke-width="2" x1="500" x2="500" y1="-74" y2="-75"/>
<line stroke="black" stroke-width="2" x1="500" x2="500" y1="-75" y2="-77"/>
<line stroke="black" stroke-width="2" x1="500" x2="500" y1="-77" y2="-78"/>
<line stroke="black" stroke-width="2" x1="500" x2="500" y1="-78" y2="-81"/>
<line stroke="black" stroke-width="2" x1="500" x2="500" y1="-81" y2="-83"/>
<line stroke="black" stroke-width="2" x1="500" x2="500" y1="-83" y2="-84"/>
<line stroke="black" stroke-width="2" x1="500" x2="500" y1="-84" y2="-87"/>
<line stroke="black" stroke-width="2" x1="500" x2="500" y1="-87" y2="-89"/>
<line stroke="black" stroke-width="2" x1="500" x2="500" y1="-89" y2="-92"/>
<line stroke="black" stroke-width="2" x1="500" x2="500" y1="-92" y2="-94"/>
</svg>