<svg height="600" width="800" xmlns="http://www.w3.org/2000/svg">
<line stroke="pink" stroke-width="2" x1="400" x2="400" y1="300" y2="200"/>
<line stroke="pink" stroke-width="2" x1="400" x2="500" y1="200" y2="199.99999999999997"/>
<line stroke="pink" stroke-width="2" x1="500" x2="500.00000000000006" y1="199.99999999999997" y2="300"/>
<line stroke="pink" stroke-width="2" x1="500.00000000000006" x2="400.00000000000006" y1="300" y2="300.00000000000006"/>
<line stroke="pink" stroke-width="2" x1="400.00000000000006" x2="400.00000000000006" y1="300.00000000000006" y2="250.00000000000006"/>
<line stroke="red" stroke-width="2" x1="400.00000000000006" x2="423.2937140592269" y1="250.00000000000006" y2="163.0666756339839"/>
<line stroke="red" stroke-width="2" x1="423.2937140592269" x2="510.22703842524305" y1="163.0666756339839" y2="186.3603896932107"/>
<line stroke="red" stroke-width="2" x1="510.22703842524305" x2="486.9333243660163" y1="186.3603896932107" y2="273.2937140592269"/>
<line stroke="red" stroke-width="2" x1="486.9333243660163" x2="400.0000000000001" y1="273.2937140592269" y2="250.0000000000001"/>
<line stroke="red" stroke-width="2" x1="400.0000000000001" x2="411.6468570296135" y1="250.0000000000001" y2="206.53333781699203"/>
<line stroke="blue" stroke-width="2" x1="411.6468570296135" x2="452.14685702961356" y1="206.53333781699203" y2="136.38528011045253"/>
<line stroke="blue" stroke-width="2" x1="452.14685702961356" x2="522.2949147361531" y1="136.38528011045253" y2="176.88528011045244"/>
<line stroke="blue" stroke-width="2" x1="522.2949147361531" x2="481.79491473615315" y1="176.88528011045244" y2="247.03333781699195"/>
<line stroke="blue" stroke-width="2" x1="481.79491473615315" x2="411.64685702961356" y1="247.03333781699195" y2="206.53333781699206"/>
<line stroke="blue" stroke-width="2" x1="411.64685702961356" x2="431.89685702961356" y1="206.53333781699206" y2="171.4593089637223"/>
<line stroke="violet" stroke-width="2" x1="431.89685702961356" x2="483.4449413781128" y1="171.4593089637223" y2="119.91122461522289"/>
<line stroke="violet" stroke-width="2" x1="483.4449413781128" x2="534.9930257266121" y1="119.91122461522289" y2="171.4593089637222"/>
<line stroke="violet" stroke-width="2" x1="534.9930257266121" x2="483.4449413781129" y1="171.4593089637222" y2="223.00739331222164"/>
<line stroke="violet" stroke-width="2" x1="483.4449413781129" x2="431.89685702961356" y1="223.00739331222164" y2="171.45930896372232"/>
<line stroke="violet" stroke-width="2" x1="431.89685702961356" x2="457.67089920386314" y1="171.45930896372232" y2="145.68526678947262"/>
<line stroke="pink" stroke-width="2" x1="457.67089920386314" x2="514.4908259461602" y1="145.68526678947262" y2="112.88026678947259"/>
<line stroke="pink" stroke-width="2" x1="514.4908259461602" x2="547.2958259461603" y1="112.88026678947259" y2="169.70019353176954"/>
<line stroke="pink" stroke-width="2" x1="547.2958259461603" x2="490.4758992038633" y1="169.70019353176954" y2="202.50519353176958"/>
<line stroke="pink" stroke-width="2" x1="490.4758992038633" x2="457.67089920386337" y1="202.50519353176958" y2="145.6852667894725"/>
<line stroke="pink" stroke-width="2" x1="457.67089920386337" x2="486.0808625750119" y1="145.6852667894725" y2="129.2827667894726"/>
<line stroke="pink" stroke-width="2" x1="486.0808625750119" x2="543.117816691555" y1="129.2827667894726" y2="113.99976099521366"/>
<line stroke="pink" stroke-width="2" x1="543.117816691555" x2="558.4008224858138" y1="113.99976099521366" y2="171.03671511175685"/>
<line stroke="pink" stroke-width="2" x1="558.4008224858138" x2="501.3638683692706" y1="171.03671511175685" y2="186.31972090601556"/>
<line stroke="pink" stroke-width="2" x1="501.3638683692706" x2="486.080862575012" y1="186.31972090601556" y2="129.2827667894723"/>
<line stroke="pink" stroke-width="2" x1="486.080862575012" x2="514.5993396332836" y1="129.2827667894723" y2="121.64126389234283"/>
<line stroke="violet" stroke-width="2" x1="514.5993396332836" x2="567.7434396332836" y1="121.64126389234283" y2="121.64126389234275"/>
<line stroke="violet" stroke-width="2" x1="567.7434396332836" x2="567.7434396332836" y1="121.64126389234275" y2="174.78536389234276"/>
<line stroke="violet" stroke-width="2" x1="567.7434396332836" x2="514.5993396332836" y1="174.78536389234276" y2="174.78536389234267"/>
<line stroke="violet" stroke-width="2" x1="514.5993396332836" x2="514.5993396332834" y1="174.78536389234267" y2="121.64126389234266"/>
<line stroke="violet" stroke-width="2" x1="514.5993396332834" x2="541.1713896332834" y1="121.64126389234266" y2="121.64126389234261"/>
<line stroke="red" stroke-width="2" x1="541.1713896332834" x2="587.3713224676834" y1="121.64126389234261" y2="134.02049858569217"/>
<line stroke="red" stroke-width="2" x1="587.3713224676834" x2="574.9920877743338" y1="134.02049858569217" y2="180.22043142009215"/>
<line stroke="red" stroke-width="2" x1="574.9920877743338" x2="528.7921549399337" y1="180.22043142009215" y2="167.84119672674277"/>
<line stroke="red" stroke-width="2" x1="528.7921549399337" x2="541.1713896332832" y1="167.84119672674277" y2="121.64126389234274"/>
<line stroke="red" stroke-width="2" x1="541.1713896332832" x2="564.2713560504832" y1="121.64126389234274" y2="127.83088123901751"/>
<line stroke="pink" stroke-width="2" x1="564.2713560504832" x2="601.5509099861042" y1="127.83088123901751" y2="149.35424173901754"/>
<line stroke="pink" stroke-width="2" x1="601.5509099861042" x2="580.0275494861041" y1="149.35424173901754" y2="186.63379567463858"/>
<line stroke="pink" stroke-width="2" x1="580.0275494861041" x2="542.747995550483" y1="186.63379567463858" y2="165.11043517463867"/>
<line stroke="pink" stroke-width="2" x1="542.747995550483" x2="564.271356050483" y1="165.11043517463867" y2="127.83088123901756"/>
<line stroke="pink" stroke-width="2" x1="564.271356050483" x2="582.9111330182935" y1="127.83088123901756" y2="138.59256148901756"/>
<line stroke="violet" stroke-width="2" x1="582.9111330182935" x2="610.3058985125443" y1="138.59256148901756" y2="165.98732698326845"/>
<line stroke="violet" stroke-width="2" x1="610.3058985125443" x2="582.9111330182934" y1="165.98732698326845" y2="193.38209247751917"/>
<line stroke="violet" stroke-width="2" x1="582.9111330182934" x2="555.5163675240425" y1="193.38209247751917" y2="165.9873269832684"/>
<line stroke="violet" stroke-width="2" x1="555.5163675240425" x2="582.9111330182932" y1="165.9873269832684" y2="138.59256148901736"/>
<line stroke="violet" stroke-width="2" x1="582.9111330182932" x2="596.6085157654186" y1="138.59256148901736" y2="152.2899442361428"/>
<line stroke="pink" stroke-width="2" x1="596.6085157654186" x2="614.0424377704187" y1="152.2899442361428" y2="182.4863829239958"/>
<line stroke="pink" stroke-width="2" x1="614.0424377704187" x2="583.8459990825655" y1="182.4863829239958" y2="199.92030492899565"/>
<line stroke="pink" stroke-width="2" x1="583.8459990825655" x2="566.4120770775655" y1="199.92030492899565" y2="169.7238662411426"/>
<line stroke="pink" stroke-width="2" x1="566.4120770775655" x2="596.6085157654185" y1="169.7238662411426" y2="152.2899442361424"/>
<line stroke="pink" stroke-width="2" x1="596.6085157654185" x2="605.3254767679184" y1="152.2899442361424" y2="167.38816358006895"/>
<line stroke="red" stroke-width="2" x1="605.3254767679184" x2="613.4474926502252" y1="167.38816358006895" y2="197.69993951271877"/>
<line stroke="red" stroke-width="2" x1="613.4474926502252" x2="583.1357167175754" y1="197.69993951271877" y2="205.82195539502567"/>
<line stroke="red" stroke-width="2" x1="583.1357167175754" x2="575.0137008352688" y1="205.82195539502567" y2="175.51017946237582"/>
<line stroke="red" stroke-width="2" x1="575.0137008352688" x2="605.3254767679185" y1="175.51017946237582" y2="167.388163580069"/>
<line stroke="red" stroke-width="2" x1="605.3254767679185" x2="609.3864847090719" y1="167.388163580069" y2="182.54405154639394"/>
<line stroke="blue" stroke-width="2" x1="609.3864847090719" x2="609.3864847090719" y1="182.54405154639394" y2="210.78700519449396"/>
<line stroke="blue" stroke-width="2" x1="609.3864847090719" x2="581.1435310609718" y1="210.78700519449396" y2="210.78700519449416"/>
<line stroke="blue" stroke-width="2" x1="581.1435310609718" x2="581.1435310609718" y1="210.78700519449416" y2="182.54405154639414"/>
<line stroke="blue" stroke-width="2" x1="581.1435310609718" x2="609.3864847090717" y1="182.54405154639414" y2="182.54405154639406"/>
<line stroke="blue" stroke-width="2" x1="609.3864847090717" x2="609.3864847090716" y1="182.54405154639406" y2="196.66552837044406"/>
<line stroke="blue" stroke-width="2" x1="609.3864847090716" x2="602.8076518444033" y1="196.66552837044406" y2="221.21806687589043"/>
<line stroke="blue" stroke-width="2" x1="602.8076518444033" x2="578.2551133389569" y1="221.21806687589043" y2="214.63923401122216"/>
<line stroke="blue" stroke-width="2" x1="578.2551133389569" x2="584.8339462036254" y1="214.63923401122216" y2="190.0866955057758"/>
<line stroke="blue" stroke-width="2" x1="584.8339462036254" x2="609.3864847090717" y1="190.0866955057758" y2="196.66552837044415"/>
<line stroke="blue" stroke-width="2" x1="609.3864847090717" x2="606.0970682767377" y1="196.66552837044415" y2="208.94179762316736"/>
<line stroke="blue" stroke-width="2" x1="606.0970682767377" x2="594.6586720492571" y1="208.94179762316736" y2="228.75368104626776"/>
<line stroke="blue" stroke-width="2" x1="594.6586720492571" x2="574.8467886261567" y1="228.75368104626776" y2="217.31528481878735"/>
<line stroke="blue" stroke-width="2" x1="574.8467886261567" x2="586.2851848536372" y1="217.31528481878735" y2="197.50340139568698"/>
<line stroke="blue" stroke-width="2" x1="586.2851848536372" x2="606.0970682767377" y1="197.50340139568698" y2="208.94179762316747"/>
<line stroke="blue" stroke-width="2" x1="606.0970682767377" x2="600.3778701629975" y1="208.94179762316747" y2="218.84773933471772"/>
<line stroke="violet" stroke-width="2" x1="600.3778701629975" x2="585.8191685939673" y1="218.84773933471772" y2="233.40644090374784"/>
<line stroke="violet" stroke-width="2" x1="585.8191685939673" x2="571.2604670249372" y1="233.40644090374784" y2="218.84773933471772"/>
<line stroke="violet" stroke-width="2" x1="571.2604670249372" x2="585.8191685939672" y1="218.84773933471772" y2="204.28903776568743"/>
<line stroke="violet" stroke-width="2" x1="585.8191685939672" x2="600.3778701629974" y1="204.28903776568743" y2="218.84773933471757"/>
<line stroke="violet" stroke-width="2" x1="600.3778701629974" x2="593.0985193784824" y1="218.84773933471757" y2="226.1270901192327"/>
<line stroke="violet" stroke-width="2" x1="593.0985193784824" x2="577.050893805771" y1="226.1270901192327" y2="235.39219106349185"/>
<line stroke="violet" stroke-width="2" x1="577.050893805771" x2="567.7857928615118" y1="235.39219106349185" y2="219.34456549078052"/>
<line stroke="violet" stroke-width="2" x1="567.7857928615118" x2="583.8334184342231" y1="219.34456549078052" y2="210.0794645465212"/>
<line stroke="violet" stroke-width="2" x1="583.8334184342231" x2="593.0985193784823" y1="210.0794645465212" y2="226.12709011923255"/>
<line stroke="violet" stroke-width="2" x1="593.0985193784823" x2="585.0747065921266" y1="226.12709011923255" y2="230.7596405913622"/>
<line stroke="violet" stroke-width="2" x1="585.0747065921266" x2="568.9657860787032" y1="230.7596405913622" y2="235.07601283387106"/>
<line stroke="violet" stroke-width="2" x1="568.9657860787032" x2="564.6494138361943" y1="235.07601283387106" y2="218.9670923204477"/>
<line stroke="violet" stroke-width="2" x1="564.6494138361943" x2="580.7583343496176" y1="218.9670923204477" y2="214.65072007793867"/>
<line stroke="violet" stroke-width="2" x1="580.7583343496176" x2="585.0747065921265" y1="214.65072007793867" y2="230.75964059136206"/>
<line stroke="violet" stroke-width="2" x1="585.0747065921265" x2="577.0202463354149" y1="230.75964059136206" y2="232.91782671261655"/>
<line stroke="violet" stroke-width="2" x1="577.0202463354149" x2="562.0107828057149" y1="232.91782671261655" y2="232.91782671261666"/>
<line stroke="violet" stroke-width="2" x1="562.0107828057149" x2="562.0107828057149" y1="232.91782671261666" y2="217.90836318291673"/>
<line stroke="violet" stroke-width="2" x1="562.0107828057149" x2="577.0202463354149" y1="217.90836318291673" y2="217.90836318291664"/>
<line stroke="violet" stroke-width="2" x1="577.0202463354149" x2="577.0202463354148" y1="217.90836318291664" y2="232.91782671261657"/>
<line stroke="violet" stroke-width="2" x1="577.0202463354148" x2="569.5155145705648" y1="232.91782671261657" y2="232.9178267126167"/>
<line stroke="blue" stroke-width="2" x1="569.5155145705648" x2="556.4672889546919" y1="232.9178267126167" y2="229.42156519618453"/>
<line stroke="blue" stroke-width="2" x1="556.4672889546919" x2="559.963550471124" y1="229.42156519618453" y2="216.37333958031155"/>
<line stroke="blue" stroke-width="2" x1="559.963550471124" x2="573.0117760869969" y1="216.37333958031155" y2="219.86960109674393"/>
<line stroke="blue" stroke-width="2" x1="573.0117760869969" x2="569.5155145705645" y1="219.86960109674393" y2="232.91782671261686"/>
<line stroke="blue" stroke-width="2" x1="569.5155145705645" x2="562.991401762628" y1="232.91782671261686" y2="231.16969595440074"/>
</svg>