<svg height="600" width="800" xmlns="http://www.w3.org/2000/svg">
<line stroke="red" stroke-width="2" x1="400" x2="400" y1="300" y2="218"/>
<line stroke="red" stroke-width="2" x1="400" x2="482" y1="218" y2="217.99999999999997"/>
<line stroke="red" stroke-width="2" x1="482" x2="482" y1="217.99999999999997" y2="300"/>
<line stroke="red" stroke-width="2" x1="482" x2="400" y1="300" y2="300.00000000000006"/>
<line stroke="yellow" stroke-width="2" x1="400" x2="407.8141679950118" y1="300.00000000000006" y2="255.6836511144507"/>
<line stroke="yellow" stroke-width="2" x1="407.8141679950118" x2="452.1305168805612" y1="255.6836511144507" y2="263.4978191094625"/>
<line stroke="yellow" stroke-width="2" x1="452.1305168805612" x2="444.31634888554936" y1="263.4978191094625" y2="307.81416799501187"/>
<line stroke="yellow" stroke-width="2" x1="444.31634888554936" x2="400" y1="307.81416799501187" y2="300.00000000000006"/>
<line stroke="green" stroke-width="2" x1="400" x2="422.91534960281984" y1="300.00000000000006" y2="237.0405944073442"/>
<line stroke="green" stroke-width="2" x1="422.91534960281984" x2="485.8747551954757" y1="237.0405944073442" y2="259.95594401016393"/>
<line stroke="green" stroke-width="2" x1="485.8747551954757" x2="462.95940559265586" y1="259.95594401016393" y2="322.9153496028198"/>
<line stroke="green" stroke-width="2" x1="462.95940559265586" x2="400" y1="322.9153496028198" y2="300.00000000000006"/>
<line stroke="violet" stroke-width="2" x1="400" x2="441" y1="300.00000000000006" y2="228.9859168896761"/>
<line stroke="violet" stroke-width="2" x1="441" x2="512.014083110324" y1="228.9859168896761" y2="269.985916889676"/>
<line stroke="violet" stroke-width="2" x1="512.014083110324" x2="471.014083110324" y1="269.985916889676" y2="340.99999999999994"/>
<line stroke="violet" stroke-width="2" x1="471.014083110324" x2="400" y1="340.99999999999994" y2="300.00000000000006"/>
<line stroke="violet" stroke-width="2" x1="400" x2="444.99513267805776" y1="300.00000000000006" y2="246.37688898167158"/>
<line stroke="violet" stroke-width="2" x1="444.99513267805776" x2="498.6182436963863" y1="246.37688898167158" y2="291.3720216597292"/>
<line stroke="violet" stroke-width="2" x1="498.6182436963863" x2="453.6231110183286" y1="291.3720216597292" y2="344.9951326780577"/>
<line stroke="violet" stroke-width="2" x1="453.6231110183286" x2="400.00000000000017" y1="344.9951326780577" y2="299.9999999999999"/>
<line stroke="yellow" stroke-width="2" x1="400.00000000000017" x2="427.5775999522834" y1="299.9999999999999" y2="276.85964605128447"/>
<line stroke="yellow" stroke-width="2" x1="427.5775999522834" x2="450.71795390099874" y1="276.85964605128447" y2="304.4372460035677"/>
<line stroke="yellow" stroke-width="2" x1="450.71795390099874" x2="423.1403539487155" y1="304.4372460035677" y2="327.57759995228304"/>
<line stroke="yellow" stroke-width="2" x1="423.1403539487155" x2="400" y1="327.57759995228304" y2="299.9999999999999"/>
<line stroke="blue" stroke-width="2" x1="400" x2="469.28203230275517" y1="299.9999999999999" y2="260.00000000000006"/>
<line stroke="blue" stroke-width="2" x1="469.28203230275517" x2="509.2820323027554" y1="260.00000000000006" y2="329.28203230275506"/>
<line stroke="blue" stroke-width="2" x1="509.2820323027554" x2="440.00000000000034" y1="329.28203230275506" y2="369.28203230275517"/>
<line stroke="blue" stroke-width="2" x1="440.00000000000034" x2="400.0000000000004" y1="369.28203230275517" y2="300.00000000000006"/>
<line stroke="blue" stroke-width="2" x1="400.0000000000004" x2="491.15018421623347" y1="300.00000000000006" y2="266.82404609741"/>
<line stroke="blue" stroke-width="2" x1="491.15018421623347" x2="524.3261381188233" y1="266.82404609741" y2="357.97423031364315"/>
<line stroke="blue" stroke-width="2" x1="524.3261381188233" x2="433.17595390259015" y1="357.97423031364315" y2="391.15018421623284"/>
<line stroke="blue" stroke-width="2" x1="433.17595390259015" x2="399.99999999999994" y1="391.15018421623284" y2="299.99999999999983"/>
<line stroke="yellow" stroke-width="2" x1="399.99999999999994" x2="496.51115979519636" y1="299.99999999999983" y2="282.9824785886408"/>
<line stroke="yellow" stroke-width="2" x1="496.51115979519636" x2="513.5286812065559" y1="282.9824785886408" y2="379.4936383838371"/>
<line stroke="yellow" stroke-width="2" x1="513.5286812065559" x2="417.01752141135955" y1="379.4936383838371" y2="396.5111597951965"/>
<line stroke="yellow" stroke-width="2" x1="417.01752141135955" x2="400.00000000000034" y1="396.5111597951965" y2="300.0000000000001"/>
<line stroke="orange" stroke-width="2" x1="400.00000000000034" x2="438.00000000000034" y1="300.0000000000001" y2="300"/>
<line stroke="orange" stroke-width="2" x1="438.00000000000034" x2="438.0000000000006" y1="300" y2="338"/>
<line stroke="orange" stroke-width="2" x1="438.0000000000006" x2="400.0000000000006" y1="338" y2="337.99999999999994"/>
<line stroke="orange" stroke-width="2" x1="400.0000000000006" x2="400.00000000000045" y1="337.99999999999994" y2="299.99999999999994"/>
<line stroke="blue" stroke-width="2" x1="400.00000000000045" x2="410.8328852831347" y1="299.99999999999994" y2="301.9101299543362"/>
<line stroke="blue" stroke-width="2" x1="410.8328852831347" x2="408.92275532879853" y1="301.9101299543362" y2="312.7430152374705"/>
<line stroke="blue" stroke-width="2" x1="408.92275532879853" x2="398.08987004566427" y1="312.7430152374705" y2="310.8328852831342"/>
<line stroke="blue" stroke-width="2" x1="398.08987004566427" x2="400.0000000000005" y1="310.8328852831342" y2="299.9999999999999"/>
<line stroke="orange" stroke-width="2" x1="400.0000000000005" x2="445.105245797724" y1="299.9999999999999" y2="316.4169668796321"/>
<line stroke="orange" stroke-width="2" x1="445.105245797724" x2="428.688278918092" y1="316.4169668796321" y2="361.52221267735575"/>
<line stroke="orange" stroke-width="2" x1="428.688278918092" x2="383.58303312036827" y1="361.52221267735575" y2="345.10524579772397"/>
<line stroke="orange" stroke-width="2" x1="383.58303312036827" x2="400.00000000000045" y1="345.10524579772397" y2="300.0000000000004"/>
<line stroke="green" stroke-width="2" x1="400.00000000000045" x2="429.4448637286715" y1="300.0000000000004" y2="317.00000000000017"/>
<line stroke="green" stroke-width="2" x1="429.4448637286715" x2="412.44486372867146" y1="317.00000000000017" y2="346.44486372867107"/>
<line stroke="green" stroke-width="2" x1="412.44486372867146" x2="383.00000000000045" y1="346.44486372867107" y2="329.4448637286712"/>
<line stroke="green" stroke-width="2" x1="383.00000000000045" x2="400.00000000000057" y1="329.4448637286712" y2="300.00000000000034"/>
<line stroke="red" stroke-width="2" x1="400.00000000000057" x2="438.3022221559496" y1="300.00000000000034" y2="332.13938048432715"/>
<line stroke="red" stroke-width="2" x1="438.3022221559496" x2="406.16284167162246" y1="332.13938048432715" y2="370.4416026402759"/>
<line stroke="red" stroke-width="2" x1="406.16284167162246" x2="367.86061951567353" y1="370.4416026402759" y2="338.302222155949"/>
<line stroke="red" stroke-width="2" x1="367.86061951567353" x2="400.0000000000003" y1="338.302222155949" y2="299.9999999999999"/>
<line stroke="green" stroke-width="2" x1="400.0000000000003" x2="452.06579638461005" y1="299.9999999999999" y2="362.04959989263705"/>
<line stroke="green" stroke-width="2" x1="452.06579638461005" x2="390.0161964919732" y1="362.04959989263705" y2="414.11539627724716"/>
<line stroke="green" stroke-width="2" x1="390.0161964919732" x2="337.95040010736363" y1="414.11539627724716" y2="352.0657963846098"/>
<line stroke="green" stroke-width="2" x1="337.95040010736363" x2="400.0000000000007" y1="352.0657963846098" y2="299.99999999999994"/>
<line stroke="green" stroke-width="2" x1="400.0000000000007" x2="404.5000000000007" y1="299.99999999999994" y2="307.7942286340599"/>
<line stroke="green" stroke-width="2" x1="404.5000000000007" x2="396.70577136594073" y1="307.7942286340599" y2="312.2942286340599"/>
<line stroke="green" stroke-width="2" x1="396.70577136594073" x2="392.2057713659407" y1="312.2942286340599" y2="304.5"/>
<line stroke="green" stroke-width="2" x1="392.2057713659407" x2="400.0000000000006" y1="304.5" y2="300"/>
<line stroke="red" stroke-width="2" x1="400.0000000000006" x2="411.28666472974754" y1="300" y2="331.009856485935"/>
<line stroke="red" stroke-width="2" x1="411.28666472974754" x2="380.2768082438126" y1="331.009856485935" y2="342.2965212156821"/>
<line stroke="red" stroke-width="2" x1="380.2768082438126" x2="368.9901435140653" y1="342.2965212156821" y2="311.2866647297472"/>
<line stroke="red" stroke-width="2" x1="368.9901435140653" x2="400.00000000000034" y1="311.2866647297472" y2="300.0000000000002"/>
<line stroke="violet" stroke-width="2" x1="400.00000000000034" x2="415.80198416769156" y1="300.0000000000002" y2="389.61750552411104"/>
<line stroke="violet" stroke-width="2" x1="415.80198416769156" x2="326.1844786435806" y1="389.61750552411104" y2="405.41948969180146"/>
<line stroke="violet" stroke-width="2" x1="326.1844786435806" x2="310.3824944758897" y1="405.41948969180146" y2="315.80198416769053"/>
<line stroke="violet" stroke-width="2" x1="310.3824944758897" x2="400.0000000000005" y1="315.80198416769053" y2="299.99999999999915"/>
<line stroke="blue" stroke-width="2" x1="400.0000000000005" x2="400.0000000000005" y1="299.99999999999915" y2="300.99999999999915"/>
<line stroke="blue" stroke-width="2" x1="400.0000000000005" x2="399.0000000000005" y1="300.99999999999915" y2="300.99999999999915"/>
<line stroke="blue" stroke-width="2" x1="399.0000000000005" x2="399.0000000000005" y1="300.99999999999915" y2="299.99999999999915"/>
<line stroke="blue" stroke-width="2" x1="399.0000000000005" x2="400.0000000000005" y1="299.99999999999915" y2="299.99999999999915"/>
<line stroke="blue" stroke-width="2" x1="400.0000000000005" x2="390.62299840598627" y1="299.99999999999915" y2="353.17961866265836"/>
<line stroke="blue" stroke-width="2" x1="390.62299840598627" x2="337.4433797433271" y1="353.17961866265836" y2="343.80261706864366"/>
<line stroke="blue" stroke-width="2" x1="337.4433797433271" x2="346.82038133734153" y1="343.80261706864366" y2="290.62299840598445"/>
<line stroke="blue" stroke-width="2" x1="346.82038133734153" x2="400.0000000000008" y1="290.62299840598445" y2="299.9999999999986"/>
<line stroke="orange" stroke-width="2" x1="400.0000000000008" x2="390.765456130208" y1="299.9999999999986" y2="325.3717007612182"/>
<line stroke="orange" stroke-width="2" x1="390.765456130208" x2="365.3937553689883" y1="325.3717007612182" y2="316.1371568914256"/>
<line stroke="orange" stroke-width="2" x1="365.3937553689883" x2="374.62829923878155" y1="316.1371568914256" y2="290.76545613020613"/>
<line stroke="orange" stroke-width="2" x1="374.62829923878155" x2="400.0000000000011" y1="290.76545613020613" y2="299.9999999999992"/>
<line stroke="violet" stroke-width="2" x1="400.0000000000011" x2="388.00000000000125" y1="299.9999999999992" y2="320.78460969082585"/>
<line stroke="violet" stroke-width="2" x1="388.00000000000125" x2="367.21539030917455" y1="320.78460969082585" y2="308.78460969082613"/>
<line stroke="violet" stroke-width="2" x1="367.21539030917455" x2="379.2153903091748" y1="308.78460969082613" y2="287.9999999999997"/>
<line stroke="violet" stroke-width="2" x1="379.2153903091748" x2="400.00000000000125" y1="287.9999999999997" y2="299.99999999999983"/>
<line stroke="violet" stroke-width="2" x1="400.00000000000125" x2="371.0745575641071" y1="299.99999999999983" y2="334.47199994035395"/>
<line stroke="violet" stroke-width="2" x1="371.0745575641071" x2="336.60255762375283" y1="334.47199994035395" y2="305.54655750446005"/>
<line stroke="violet" stroke-width="2" x1="336.60255762375283" x2="365.52800005964656" y1="305.54655750446005" y2="271.0745575641056"/>
<line stroke="violet" stroke-width="2" x1="365.52800005964656" x2="400.00000000000034" y1="271.0745575641056" y2="300.0000000000001"/>
<line stroke="orange" stroke-width="2" x1="400.00000000000034" x2="369.35822227524125" y1="300.0000000000001" y2="325.71150438746173"/>
<line stroke="orange" stroke-width="2" x1="369.35822227524125" x2="343.64671788777946" y1="325.71150438746173" y2="295.0697266627028"/>
<line stroke="orange" stroke-width="2" x1="343.64671788777946" x2="374.28849561253827" y1="295.0697266627028" y2="269.35822227524085"/>
<line stroke="orange" stroke-width="2" x1="374.28849561253827" x2="399.99999999999955" y1="269.35822227524085" y2="300.0000000000002"/>
<line stroke="orange" stroke-width="2" x1="399.99999999999955" x2="389.6076951545863" y1="300.0000000000002" y2="306.0000000000002"/>
<line stroke="orange" stroke-width="2" x1="389.6076951545863" x2="383.6076951545862" y1="306.0000000000002" y2="295.60769515458696"/>
<line stroke="orange" stroke-width="2" x1="383.6076951545862" x2="393.99999999999943" y1="295.60769515458696" y2="289.60769515458685"/>
<line stroke="orange" stroke-width="2" x1="393.99999999999943" x2="399.9999999999996" y1="289.60769515458685" y2="300"/>
<line stroke="green" stroke-width="2" x1="399.9999999999996" x2="347.3772132359886" y1="300" y2="319.1531280262372"/>
<line stroke="green" stroke-width="2" x1="347.3772132359886" x2="328.22408520975114" y1="319.1531280262372" y2="266.53034126222633"/>
<line stroke="green" stroke-width="2" x1="328.22408520975114" x2="380.8468719737619" y1="266.53034126222633" y2="247.37721323598856"/>
<line stroke="green" stroke-width="2" x1="380.8468719737619" x2="399.99999999999994" y1="247.37721323598856" y2="299.9999999999992"/>
<line stroke="yellow" stroke-width="2" x1="399.99999999999994" x2="315.30653324094993" y1="299.9999999999992" y2="314.9337432793546"/>
<line stroke="yellow" stroke-width="2" x1="315.30653324094993" x2="300.3727899615941" y1="314.9337432793546" y2="230.24027652030466"/>
<line stroke="yellow" stroke-width="2" x1="300.3727899615941" x2="385.06625672064393" y1="230.24027652030466" y2="215.3065332409484"/>
<line stroke="yellow" stroke-width="2" x1="385.06625672064393" x2="400.0000000000007" y1="215.3065332409484" y2="299.9999999999982"/>
<line stroke="yellow" stroke-width="2" x1="400.0000000000007" x2="334.0000000000007" y1="299.9999999999982" y2="299.99999999999744"/>
<line stroke="yellow" stroke-width="2" x1="334.0000000000007" x2="334.000000000001" y1="299.99999999999744" y2="233.99999999999744"/>
<line stroke="yellow" stroke-width="2" x1="334.000000000001" x2="400.000000000001" y1="233.99999999999744" y2="233.99999999999744"/>
<line stroke="yellow" stroke-width="2" x1="400.000000000001" x2="400.00000000000136" y1="233.99999999999744" y2="299.99999999999744"/>
<line stroke="yellow" stroke-width="2" x1="400.00000000000136" x2="397.04557674096475" y1="299.99999999999744" y2="299.47905546699667"/>
<line stroke="yellow" stroke-width="2" x1="397.04557674096475" x2="397.5665212739656" y1="299.47905546699667" y2="296.52463220796005"/>
<line stroke="yellow" stroke-width="2" x1="397.5665212739656" x2="400.5209445330022" y1="296.52463220796005" y2="297.0455767409608"/>
<line stroke="yellow" stroke-width="2" x1="400.5209445330022" x2="400.0000000000014" y1="297.0455767409608" y2="299.99999999999744"/>
<line stroke="violet" stroke-width="2" x1="400.0000000000014" x2="372.74891399720997" y1="299.99999999999744" y2="290.0814158435534"/>
<line stroke="violet" stroke-width="2" x1="372.74891399720997" x2="382.6674981536539" y1="290.0814158435534" y2="262.83032984076186"/>
<line stroke="violet" stroke-width="2" x1="382.6674981536539" x2="409.9185841564452" y1="262.83032984076186" y2="272.74891399720644"/>
<line stroke="violet" stroke-width="2" x1="409.9185841564452" x2="400.0000000000008" y1="272.74891399720644" y2="299.9999999999978"/>
<line stroke="red" stroke-width="2" x1="400.0000000000008" x2="360.1628314259164" y1="299.9999999999978" y2="276.9999999999981"/>
<line stroke="red" stroke-width="2" x1="360.1628314259164" x2="383.16283142591584" y1="276.9999999999981" y2="237.16283142591362"/>
<line stroke="red" stroke-width="2" x1="383.16283142591584" x2="422.9999999999998" y1="237.16283142591362" y2="260.162831425914"/>
<line stroke="red" stroke-width="2" x1="422.9999999999998" x2="399.9999999999996" y1="260.162831425914" y2="299.9999999999981"/>
<line stroke="orange" stroke-width="2" x1="399.9999999999996" x2="360.16568895781256" y1="299.9999999999981" y2="266.5750442962983"/>
<line stroke="orange" stroke-width="2" x1="360.16568895781256" x2="393.59064466151216" y1="266.5750442962983" y2="226.7407332541111"/>
<line stroke="orange" stroke-width="2" x1="393.59064466151216" x2="433.42495570369954" y1="226.7407332541111" y2="260.1656889578105"/>
<line stroke="orange" stroke-width="2" x1="433.42495570369954" x2="399.9999999999992" y1="260.1656889578105" y2="299.99999999999716"/>
<line stroke="violet" stroke-width="2" x1="399.9999999999992" x2="359.50438058974714" y1="299.99999999999716" y2="251.73920008350163"/>
<line stroke="violet" stroke-width="2" x1="359.50438058974714" x2="407.7651805062425" y1="251.73920008350163" y2="211.24358067324928"/>
<line stroke="violet" stroke-width="2" x1="407.7651805062425" x2="448.2607999164951" y1="211.24358067324928" y2="259.50438058974436"/>
<line stroke="violet" stroke-width="2" x1="448.2607999164951" x2="399.9999999999991" y1="259.50438058974436" y2="299.99999999999585"/>
<line stroke="blue" stroke-width="2" x1="399.9999999999991" x2="393.9999999999991" y1="299.99999999999585" y2="289.6076951545826"/>
<line stroke="blue" stroke-width="2" x1="393.9999999999991" x2="404.39230484541235" y1="289.6076951545826" y2="283.60769515458253"/>
<line stroke="blue" stroke-width="2" x1="404.39230484541235" x2="410.39230484541247" y1="283.60769515458253" y2="293.99999999999574"/>
<line stroke="blue" stroke-width="2" x1="410.39230484541247" x2="399.9999999999993" y1="293.99999999999574" y2="299.9999999999959"/>
<line stroke="blue" stroke-width="2" x1="399.9999999999993" x2="383.24101297704175" y1="299.9999999999959" y2="253.95506158148632"/>
<line stroke="blue" stroke-width="2" x1="383.24101297704175" x2="429.28595139555125" y1="253.95506158148632" y2="237.1960745585285"/>
<line stroke="blue" stroke-width="2" x1="429.28595139555125" x2="446.04493841850933" y1="237.1960745585285" y2="283.2410129770379"/>
<line stroke="blue" stroke-width="2" x1="446.04493841850933" x2="400" y1="283.2410129770379" y2="299.9999999999962"/>
<line stroke="red" stroke-width="2" x1="400" x2="397.22162915732923" y1="299.9999999999962" y2="284.24307595180085"/>
<line stroke="red" stroke-width="2" x1="397.22162915732923" x2="412.9785532055246" y1="284.24307595180085" y2="281.46470510912997"/>
<line stroke="red" stroke-width="2" x1="412.9785532055246" x2="415.7569240481955" y1="281.46470510912997" y2="297.2216291573253"/>
<line stroke="red" stroke-width="2" x1="415.7569240481955" x2="400.0000000000002" y1="297.2216291573253" y2="299.99999999999636"/>
</svg>